<svg xmlns="http://www.w3.org/2000/svg" xmlns:xlink="http://www.w3.org/1999/xlink" width="1080" zoomAndPan="magnify" viewBox="0 0 810 809.999993" height="1080" preserveAspectRatio="xMidYMid meet" version="1.0"><defs><clipPath id="68d6c113ce"><path d="M 0 137.246094 L 598 137.246094 L 598 672.652344 L 0 672.652344 Z M 0 137.246094 " clip-rule="nonzero"/></clipPath><clipPath id="b1d0e50e68"><path d="M 660 397.296875 L 810 397.296875 L 810 410.1875 L 660 410.1875 Z M 660 397.296875 " clip-rule="nonzero"/></clipPath></defs><g clip-path="url(#68d6c113ce)"><path fill="#424242" d="M 490.835938 660.027344 C 478.605469 660.027344 466.832031 653.292969 455.992188 641.25 L 455.707031 640.882812 C 452.925781 637.226562 450.40625 634.035156 448.003906 631.140625 L 447.5625 630.554688 C 432.015625 608.246094 418.886719 574.546875 409.824219 533.863281 L 507.753906 516.402344 C 537.652344 515.355469 553.78125 458.503906 553.78125 404.949219 C 553.78125 351.265625 537.582031 294.265625 507.542969 293.484375 L 507.542969 293.476562 C 506.785156 293.402344 437.359375 286.527344 408.769531 280.914062 C 425.191406 203.4375 456.183594 149.871094 490.835938 149.871094 C 542.03125 149.871094 585.277344 266.683594 585.277344 404.949219 C 585.277344 543.214844 542.03125 660.027344 490.835938 660.027344 Z M 460.066406 404.949219 C 460.066406 445.941406 469.519531 488.855469 487.351562 507.21875 L 407.246094 521.5 C 400.351562 486.332031 396.402344 446.632812 396.402344 404.949219 C 396.402344 365.191406 399.992188 327.234375 406.304688 293.289062 C 426.066406 297.160156 463.097656 301.457031 486.171875 303.945312 C 469.101562 322.960938 460.066406 364.875 460.066406 404.949219 Z M 506.921875 503.828125 C 490.734375 503.828125 472.691406 463.222656 472.691406 404.949219 C 472.691406 346.675781 490.734375 306.070312 506.921875 306.070312 C 523.117188 306.070312 541.15625 346.675781 541.15625 404.949219 C 541.15625 463.222656 523.117188 503.828125 506.921875 503.828125 Z M 254.800781 502.933594 L 254.828125 502.722656 L 249.761719 501.039062 C 246.800781 500.058594 243.847656 499.15625 240.882812 498.253906 C 232.617188 495.75 224.382812 493.472656 216.441406 491.484375 C 203.957031 488.316406 191.0625 485.476562 178.117188 483.0625 L 178.085938 483.234375 C 178.078125 483.234375 178.074219 483.230469 178.066406 483.230469 C 161.125 480.117188 144.132812 477.742188 127.578125 476.171875 C 122.871094 475.71875 118.113281 475.371094 113.371094 475.039062 C 89.84375 410.335938 107.816406 349.609375 113.265625 334.019531 C 175.054688 332.820312 310.605469 317.429688 414.664062 215.15625 C 395.480469 263.289062 383.777344 330.070312 383.777344 404.949219 C 383.777344 480.328125 395.640625 547.492188 415.050781 595.699219 C 372.089844 555.195312 318.382812 524.085938 254.800781 502.933594 Z M 220.949219 536.140625 L 220.949219 506.085938 C 226.285156 507.515625 231.675781 509.019531 237.113281 510.667969 C 238.167969 510.992188 239.222656 511.3125 240.28125 511.636719 C 237.359375 523.265625 230.007812 532.402344 220.949219 536.140625 Z M 170.90625 660.226562 C 160.777344 660.226562 151.28125 656.292969 144.15625 649.132812 C 137.011719 642.023438 133.074219 632.527344 133.074219 622.402344 L 133.074219 489.449219 C 147.148438 490.960938 161.46875 493.015625 175.765625 495.644531 L 175.734375 495.816406 C 186.867188 497.898438 197.914062 500.332031 208.738281 502.992188 L 208.738281 622.402344 C 208.738281 643.257812 191.765625 660.226562 170.90625 660.226562 Z M 81.351562 473.910156 C 80.59375 473.910156 79.898438 473.886719 79.191406 473.863281 C 56.136719 412.234375 74.023438 349.28125 79.300781 333.378906 C 79.886719 333.363281 80.457031 333.335938 81.074219 333.335938 C 82.601562 333.46875 89.402344 333.984375 100.296875 334.09375 C 93.378906 355.214844 79.207031 411.890625 100.144531 474.253906 C 88.386719 473.761719 81.574219 473.902344 81.351562 473.910156 Z M 12.625 403.605469 C 12.625 384.773438 19.785156 367.113281 32.792969 353.867188 C 41.910156 344.5625 53.398438 338.160156 65.863281 335.21875 C 59.046875 357.664062 46.152344 413.984375 65.554688 471.945312 C 35.199219 464.574219 12.625 436.371094 12.625 403.605469 Z M 490.835938 137.25 C 473.554688 137.25 457.359375 147.042969 443.042969 164.507812 L 442.613281 164.183594 C 337.5625 304.125 174.324219 320.796875 109.007812 321.46875 C 92.171875 321.691406 82.039062 320.75 81.941406 320.738281 L 81.351562 320.710938 C 78.820312 320.710938 76.523438 320.820312 74.414062 321.027344 C 55.320312 322.664062 37.335938 331.191406 23.777344 345.03125 C 8.445312 360.644531 0 381.445312 0 403.605469 C 0 446.367188 32.6875 482.660156 74.328125 486.210938 C 76.507812 486.433594 78.730469 486.414062 81.503906 486.535156 C 81.59375 486.511719 91.769531 486.304688 108.683594 487.324219 C 112.722656 487.582031 116.796875 487.949219 120.863281 488.296875 L 120.863281 622.402344 C 120.863281 635.800781 126.078125 648.367188 135.519531 657.765625 C 144.933594 667.222656 157.503906 672.4375 170.90625 672.4375 C 198.5 672.4375 220.949219 649.988281 220.949219 622.402344 L 220.949219 549.855469 C 236.027344 546.058594 248.105469 532.964844 252.667969 515.535156 C 330.089844 541.628906 392.246094 582.804688 437.410156 638.085938 L 438.101562 638.972656 C 438.167969 639.054688 438.230469 639.140625 438.300781 639.222656 C 440.558594 642.347656 442.875 645.269531 445.238281 647.984375 C 445.378906 648.167969 445.527344 648.34375 445.664062 648.527344 L 445.699219 648.5 C 459.355469 664 474.609375 672.652344 490.835938 672.652344 C 550.875 672.652344 597.902344 555.0625 597.902344 404.949219 C 597.902344 254.839844 550.875 137.25 490.835938 137.25 " fill-opacity="1" fill-rule="nonzero"/></g><g clip-path="url(#b1d0e50e68)"><path fill="#424242" d="M 803.699219 410.105469 L 666.335938 410.105469 C 662.847656 410.105469 660.019531 407.28125 660.019531 403.792969 C 660.019531 400.308594 662.847656 397.484375 666.335938 397.484375 L 803.699219 397.484375 C 807.183594 397.484375 810.011719 400.308594 810.011719 403.792969 C 810.011719 407.28125 807.183594 410.105469 803.699219 410.105469 " fill-opacity="1" fill-rule="nonzero"/></g><path fill="#424242" d="M 642.894531 291.847656 C 640.394531 291.847656 638.03125 290.359375 637.039062 287.898438 C 635.730469 284.667969 637.292969 280.988281 640.527344 279.683594 L 767.890625 228.234375 C 771.125 226.921875 774.808594 228.492188 776.109375 231.722656 C 777.417969 234.957031 775.851562 238.632812 772.625 239.9375 L 645.253906 291.386719 C 644.484375 291.703125 643.679688 291.847656 642.894531 291.847656 " fill-opacity="1" fill-rule="nonzero"/><path fill="#424242" d="M 771.113281 579.984375 C 770.332031 579.984375 769.535156 579.835938 768.761719 579.523438 L 641.394531 528.074219 C 638.15625 526.765625 636.597656 523.089844 637.90625 519.859375 C 639.203125 516.628906 642.878906 515.066406 646.121094 516.371094 L 773.484375 567.820312 C 776.71875 569.128906 778.28125 572.804688 776.972656 576.035156 C 775.984375 578.492188 773.617188 579.984375 771.113281 579.984375 " fill-opacity="1" fill-rule="nonzero"/></svg>