<svg xmlns="http://www.w3.org/2000/svg" xmlns:xlink="http://www.w3.org/1999/xlink" width="1080" zoomAndPan="magnify" viewBox="0 0 810 809.999993" height="1080" preserveAspectRatio="xMidYMid meet" version="1.0"><path fill="#424242" d="M 355.9375 31.0625 C 361.707031 31.53125 367.601562 32.222656 373.582031 33.125 C 374.003906 31.597656 374.886719 30.199219 376.179688 29.105469 C 377.40625 28.0625 378.648438 27.046875 379.910156 26.050781 C 372.011719 27.355469 364.050781 29.019531 355.9375 31.0625 Z M 458.679688 28.453125 C 456.496094 30.601562 454.042969 32.433594 451.4375 34.03125 C 452.425781 33.625 453.410156 33.222656 454.40625 32.828125 C 457.441406 31.628906 460.484375 30.429688 463.597656 29.59375 C 462.03125 29.136719 460.460938 28.691406 458.859375 28.265625 C 458.792969 28.332031 458.738281 28.394531 458.679688 28.453125 Z M 392.328125 36.59375 C 394.371094 37.054688 396.433594 37.535156 398.515625 38.046875 C 399.480469 36.277344 401.164062 35.003906 403.324219 34.59375 C 411.746094 32.941406 420.386719 30.039062 429.753906 25.714844 C 430.765625 25.25 434.277344 23.578125 435.019531 23.21875 C 430.695312 22.539062 426.351562 21.960938 422.007812 21.511719 L 420.027344 22.277344 C 417.738281 23.164062 415.574219 23.996094 413.613281 24.898438 C 405.085938 28.871094 398.257812 32.605469 392.328125 36.59375 Z M 445.789062 54.625 C 447.792969 55.632812 449.757812 56.679688 451.667969 57.757812 C 457.941406 55.804688 464.351562 53.625 471.222656 51.109375 C 473.421875 50.304688 475.703125 49.332031 478.019531 48.335938 C 483.90625 45.808594 489.964844 43.21875 496.21875 42.523438 C 491.824219 40.238281 487.222656 38.113281 482.421875 36.140625 C 482.167969 37.757812 481.304688 39.28125 480.03125 40.253906 C 474.78125 44.285156 468.320312 46.398438 462.070312 48.4375 C 459.128906 49.402344 456.355469 50.304688 453.78125 51.390625 C 451.320312 52.417969 448.617188 53.519531 445.789062 54.625 Z M 470.316406 70.839844 C 472.757812 70 475.203125 69.148438 477.652344 68.289062 C 484.601562 65.867188 491.796875 63.355469 498.992188 61.160156 C 500.671875 60.644531 502.375 60.074219 504.085938 59.507812 C 508.339844 58.101562 512.675781 56.65625 517.121094 55.8125 C 514.050781 53.433594 510.816406 51.164062 507.449219 49.011719 C 507.421875 50.496094 506.804688 51.9375 505.660156 53.101562 C 499.414062 59.429688 490.234375 62.300781 482.128906 64.839844 C 480.175781 65.449219 478.257812 66.046875 476.429688 66.679688 C 473.839844 67.574219 471.191406 68.453125 468.519531 69.296875 C 469.121094 69.804688 469.722656 70.316406 470.316406 70.839844 Z M 482.433594 83.761719 C 485.183594 87.242188 487.757812 90.917969 490.152344 94.765625 C 491.25 94.074219 492.347656 93.390625 493.4375 92.710938 C 496.605469 90.734375 499.605469 88.871094 502.367188 86.90625 C 505.148438 84.9375 507.925781 82.574219 510.863281 80.066406 C 513.222656 78.050781 515.625 76.003906 518.097656 74.113281 C 515.296875 74.851562 512.445312 75.46875 509.628906 76.074219 C 506.007812 76.863281 502.582031 77.601562 499.398438 78.5625 C 493.742188 80.28125 488.085938 82.023438 482.433594 83.761719 Z M 499.128906 111.921875 C 501.847656 118.210938 504.148438 124.902344 506.023438 131.910156 C 508.777344 129.378906 511.585938 126.976562 514.320312 124.617188 L 517.542969 121.847656 C 525.75 114.726562 535.523438 106.832031 547.660156 103.390625 C 548.441406 103.164062 549.222656 103.054688 549.988281 103.054688 C 550.757812 103.054688 551.496094 103.164062 552.203125 103.375 C 549.429688 95.21875 545.707031 87.726562 540.992188 80.808594 C 539.347656 78.394531 537.566406 76.023438 535.671875 73.703125 C 536.457031 84.453125 524.667969 93.027344 516.785156 98.777344 L 514.832031 100.195312 C 513.128906 101.46875 511.378906 102.804688 509.601562 104.160156 C 506.222656 106.75 502.738281 109.410156 499.128906 111.921875 Z M 510.195312 152.8125 C 511.152344 159.652344 511.863281 166.753906 512.300781 174.070312 C 517.578125 167.070312 524.402344 160.769531 530.640625 154.988281 C 532.179688 153.574219 533.675781 152.1875 535.101562 150.835938 C 543.390625 142.964844 550.675781 137.011719 557.855469 132.238281 C 557.445312 126.890625 556.761719 121.785156 555.792969 116.894531 C 554.902344 117.773438 553.765625 118.445312 552.445312 118.859375 C 541.375 122.28125 531.882812 131.59375 523.503906 139.8125 L 522.847656 140.457031 C 521.585938 141.691406 520.316406 142.996094 519.011719 144.328125 C 516.226562 147.199219 513.347656 150.160156 510.195312 152.8125 Z M 512.867188 193.484375 C 512.863281 207.328125 512.015625 221.859375 510.3125 237.511719 C 514.84375 232.886719 519.773438 228.644531 524.335938 224.730469 C 525.75 223.515625 527.125 222.335938 528.453125 221.171875 C 536.109375 214.484375 543.9375 208.101562 550.09375 203.167969 C 554.636719 184.648438 557.25 168.277344 558.03125 153.394531 C 552.984375 157.597656 547.769531 162.519531 541.996094 168.503906 C 540.246094 170.320312 538.515625 172.230469 536.773438 174.167969 C 530.257812 181.363281 523.523438 188.804688 514.554688 192.972656 C 514.011719 193.222656 513.4375 193.398438 512.867188 193.484375 Z M 506.335938 266.699219 C 504.578125 277.617188 502.433594 289.09375 499.753906 302.003906 C 506.730469 293.652344 516.007812 283.683594 526.054688 280.847656 C 528.824219 272.632812 531.578125 264.425781 534.28125 256.222656 C 536.515625 249.453125 538.976562 241.921875 541.425781 234.023438 C 540.277344 235.089844 539.128906 236.152344 537.992188 237.234375 C 534.929688 240.117188 531.953125 243.363281 528.789062 246.789062 C 521.96875 254.195312 514.921875 261.835938 506.335938 266.699219 Z M 488.195312 352.363281 C 493.179688 347.226562 498.257812 342.21875 503.226562 337.3125 C 505.148438 335.40625 507.078125 333.511719 509.003906 331.609375 C 510.992188 325.585938 513 319.574219 515.019531 313.5625 C 511.992188 317.082031 509.03125 320.777344 506.175781 324.597656 C 499.664062 333.300781 494.121094 341.59375 489.203125 349.9375 C 488.976562 350.332031 488.746094 350.738281 488.511719 351.144531 C 488.410156 351.550781 488.3125 351.957031 488.195312 352.363281 Z M 476.523438 394.242188 C 475.472656 397.949219 474.507812 401.378906 473.617188 404.632812 C 478.730469 400.113281 483.621094 395.367188 487.183594 390.027344 C 488.300781 388.355469 489.882812 387.171875 491.714844 386.597656 C 493.320312 381.117188 494.984375 375.546875 496.742188 369.839844 C 495.632812 371.113281 494.539062 372.363281 493.460938 373.617188 C 491.625 375.753906 489.84375 378.226562 487.953125 380.84375 C 484.519531 385.609375 480.960938 390.511719 476.523438 394.242188 Z M 476.355469 430.796875 C 477.507812 430.796875 478.628906 431.054688 479.652344 431.523438 C 480.394531 428.464844 481.164062 425.355469 481.960938 422.207031 C 480.722656 423.472656 479.445312 424.75 478.117188 426.042969 C 476.664062 427.449219 475.03125 429.359375 473.300781 431.390625 C 474.289062 430.992188 475.308594 430.796875 476.355469 430.796875 Z M 465.171875 476.285156 C 468.140625 476.285156 471.035156 477.746094 472.902344 480.019531 C 472.800781 471.3125 472.867188 462.433594 474.574219 454.210938 C 474.945312 452.394531 475.328125 450.582031 475.714844 448.761719 C 469.9375 452.765625 464.984375 456.984375 460.925781 461.339844 C 460.089844 467.054688 459.433594 472.835938 458.847656 478.773438 C 460.644531 477.148438 462.820312 476.285156 465.171875 476.285156 Z M 455.5625 510.390625 C 455.066406 514.359375 454.457031 518.664062 453.683594 523.160156 C 453.839844 523.054688 455.398438 521.960938 455.398438 521.960938 C 458.167969 519.972656 461.097656 517.8125 463.679688 515.289062 C 465.335938 513.660156 467.398438 512.804688 469.628906 512.804688 C 470.09375 512.804688 470.558594 512.847656 471.019531 512.921875 C 472.652344 506.019531 472.992188 498.519531 473.003906 490.988281 C 472.792969 491.257812 472.566406 491.523438 472.320312 491.769531 C 466.105469 498.230469 460.535156 504.097656 455.5625 510.390625 Z M 448.972656 543.542969 C 449.90625 542.796875 450.847656 542.023438 451.777344 541.238281 C 451.089844 541.179688 450.417969 541.015625 449.773438 540.777344 C 449.511719 541.703125 449.242188 542.621094 448.972656 543.542969 Z M 326.097656 572.433594 C 333 572.433594 339.996094 572.710938 346.757812 572.984375 C 351.933594 573.183594 357.105469 573.394531 362.265625 573.476562 L 363.125 573.496094 C 365.796875 573.535156 368.59375 573.589844 371.476562 573.589844 C 387.507812 573.589844 405.246094 572.058594 415.269531 560.71875 C 429.488281 544.617188 432.019531 518.175781 434.25 494.855469 C 434.675781 490.460938 435.078125 486.195312 435.554688 482.164062 C 435.042969 481.664062 434.605469 481.082031 434.277344 480.4375 C 430.816406 473.703125 432.625 465.441406 439.484375 456.492188 C 443.5625 434.460938 449.0625 413.605469 455.808594 388.703125 C 469.378906 338.539062 483.957031 279.324219 489.152344 220.410156 C 491.558594 193.050781 493.203125 153.484375 480.375 121.9375 C 479.78125 122.132812 479.1875 122.3125 478.605469 122.472656 C 477.902344 122.679688 477.1875 122.777344 476.484375 122.777344 C 473.839844 122.777344 471.527344 121.363281 470.300781 118.996094 C 469.007812 116.488281 469.25 113.464844 470.914062 111.117188 C 471.625 110.109375 472.4375 109.105469 473.394531 108.042969 C 469.625 101.863281 465.222656 96.347656 460.273438 91.613281 C 459.457031 90.839844 458.613281 90.101562 457.761719 89.375 L 457.457031 89.101562 C 456.429688 88.558594 455.546875 87.777344 454.839844 86.804688 C 449.957031 82.796875 444.472656 79.113281 438.515625 75.832031 C 437.820312 75.558594 437.15625 75.207031 436.554688 74.753906 C 424.074219 68.152344 409.476562 63.128906 391.945312 59.402344 C 372.164062 55.179688 354.714844 53.132812 338.613281 53.132812 C 326.917969 53.132812 315.898438 54.261719 305.855469 56.484375 C 277.734375 62.714844 260.65625 77.097656 253.648438 100.441406 C 244.773438 130.011719 247.585938 162.335938 251.03125 187.207031 C 253.941406 208.1875 258.347656 229.296875 262.609375 249.703125 C 264.316406 257.890625 266.027344 266.078125 267.65625 274.28125 C 271.160156 292.03125 273.871094 310.199219 276.484375 327.773438 C 278.46875 341.070312 280.519531 354.824219 282.898438 368.25 C 284.847656 379.28125 286.9375 390.382812 289.039062 401.546875 C 299.625 457.910156 310.570312 516.132812 305.835938 573.472656 C 311.949219 572.765625 318.5 572.433594 326.097656 572.433594 Z M 401.003906 597.964844 C 398.507812 597.964844 396.074219 596.9375 394.175781 595.136719 C 386.539062 596.449219 377.992188 597.070312 367.492188 597.070312 C 359.609375 597.070312 351.589844 596.71875 343.84375 596.386719 C 336.191406 596.050781 328.96875 595.742188 321.964844 595.742188 C 313.722656 595.742188 307.238281 596.175781 301.59375 597.121094 C 300.886719 597.238281 300.214844 597.296875 299.570312 597.296875 C 294.828125 597.296875 291.121094 594.253906 289.964844 589.574219 C 288.34375 588.054688 287.480469 585.957031 287.542969 583.640625 C 289.226562 521.539062 277.6875 458.875 266.527344 398.277344 C 264.800781 388.902344 263.074219 379.539062 261.402344 370.195312 C 259.109375 357.375 257.128906 344.28125 255.21875 331.625 C 252.515625 313.730469 249.71875 295.214844 245.984375 277.277344 C 244.648438 270.835938 243.269531 264.40625 241.894531 257.96875 C 237.582031 237.867188 233.132812 217.074219 230.039062 196.335938 C 222.25 144.054688 218.867188 80.226562 262.164062 50.480469 C 267.3125 46.933594 273.015625 43.808594 279.117188 41.160156 C 295.316406 31.011719 314.160156 24.480469 330.472656 19.425781 C 357.671875 10.996094 380.757812 6.097656 402.949219 4.027344 C 404.636719 2.226562 406.839844 1.21875 409.203125 1.21875 C 409.253906 1.21875 409.539062 1.226562 409.605469 1.226562 C 413.527344 1.417969 417.664062 1.710938 421.890625 2.105469 C 425.738281 0.699219 429.214844 0.0195312 432.515625 0.0195312 C 433.410156 0.0195312 434.316406 0.0703125 435.21875 0.171875 C 437.019531 0.394531 438.53125 1.324219 439.472656 2.808594 C 439.789062 3.304688 440.027344 3.847656 440.1875 4.417969 C 470.8125 9.363281 523.453125 23.582031 553.386719 64.078125 C 566.261719 81.5 574.152344 102.578125 576.839844 126.742188 C 579.019531 128.234375 580.542969 130.660156 580.761719 133.242188 C 580.988281 135.835938 579.902344 138.210938 577.804688 139.8125 C 578.328125 154.582031 577.152344 170.324219 574.21875 187.761719 C 576.554688 188.414062 578.523438 190.28125 579.472656 192.867188 C 580.714844 196.277344 579.761719 199.980469 577.03125 202.292969 C 575.46875 203.621094 573.925781 204.976562 572.378906 206.328125 C 571.621094 207 570.867188 207.664062 570.109375 208.328125 C 567.214844 220.929688 563.496094 234.390625 558.761719 249.4375 C 552.472656 269.367188 545.855469 289.535156 539.445312 309.042969 C 534 325.632812 528.546875 342.21875 523.242188 358.847656 C 521.324219 364.847656 519.296875 370.949219 517.238281 377.136719 C 507.144531 407.496094 496.710938 438.898438 495.613281 469.273438 C 495.476562 472.941406 495.425781 476.683594 495.359375 480.464844 C 494.984375 503.308594 494.566406 529.210938 477.078125 547.648438 C 468.351562 556.84375 457.617188 565.648438 443.300781 575.351562 L 439.011719 578.285156 C 428.113281 585.746094 416.847656 593.460938 403.867188 597.523438 C 402.929688 597.816406 401.964844 597.964844 401.003906 597.964844 " fill-opacity="1" fill-rule="nonzero"/><path fill="#424242" d="M 362.066406 657.800781 C 360.554688 658.726562 358.996094 659.523438 357.488281 660.300781 C 356.660156 660.726562 355.847656 661.136719 355.070312 661.566406 C 349.082031 664.859375 343.621094 668.332031 338.835938 671.886719 C 333.804688 675.625 328.398438 679.777344 323.714844 684.34375 C 334.847656 681.464844 346.320312 679.546875 357.507812 677.679688 L 360.355469 677.203125 C 362.398438 676.855469 364.695312 676.402344 367.148438 675.914062 C 374.339844 674.488281 383.296875 672.710938 391.503906 672.710938 C 394.644531 672.710938 397.457031 672.964844 400 673.46875 C 403.214844 668.058594 406.957031 662.945312 411.367188 657.945312 C 402.117188 658.535156 393.410156 658.957031 384.585938 658.957031 C 376.351562 658.957031 368.964844 658.578125 362.066406 657.800781 Z M 429.90625 683.609375 C 429.179688 685.539062 428.453125 687.445312 427.726562 689.335938 C 427.25 690.570312 426.804688 691.816406 426.367188 693.066406 C 427.191406 691.585938 428.03125 690.105469 428.886719 688.625 C 429.285156 687.933594 429.761719 687.3125 430.300781 686.773438 C 430.164062 685.707031 430.03125 684.65625 429.90625 683.609375 Z M 434.105469 720.59375 C 434.914062 720.59375 435.714844 720.714844 436.476562 720.941406 C 436.003906 718.792969 435.550781 716.648438 435.105469 714.5 C 434.132812 716.644531 433.242188 718.726562 432.417969 720.761719 C 432.957031 720.652344 433.523438 720.59375 434.105469 720.59375 Z M 438.511719 751.308594 C 440.582031 751.308594 442.609375 752.046875 444.0625 753.324219 C 444.0625 753.324219 441.257812 741.652344 440.339844 737.796875 C 439.441406 742.144531 438.402344 746.765625 437.167969 751.414062 C 437.605469 751.34375 438.054688 751.308594 438.511719 751.308594 Z M 328.148438 715.765625 C 334.371094 736.203125 340.96875 759.839844 342.1875 784.644531 C 350.152344 782.195312 358.738281 781.007812 366.46875 779.941406 C 368.144531 779.707031 369.792969 779.480469 371.398438 779.242188 C 376.96875 778.429688 382.546875 777.691406 388.132812 776.945312 C 393.910156 776.175781 399.691406 775.410156 405.464844 774.558594 C 405.578125 761.710938 405.683594 748.445312 404.917969 735.476562 C 404.871094 734.757812 404.835938 733.683594 404.777344 732.355469 C 404.527344 725.832031 403.832031 707.582031 400.460938 699.121094 C 399.828125 699.289062 399.15625 699.378906 398.464844 699.378906 C 396.078125 699.378906 393.902344 698.320312 392.648438 696.554688 C 392.269531 696.019531 391.984375 695.449219 391.800781 694.847656 C 391.074219 694.820312 390.339844 694.8125 389.585938 694.8125 C 379.519531 694.8125 368.386719 697.15625 358.570312 699.21875 C 356.335938 699.691406 354.148438 700.144531 352.03125 700.574219 L 347.140625 701.535156 C 340.777344 702.78125 334.261719 704.058594 327.917969 705.679688 C 328.34375 706.828125 328.535156 708.109375 328.421875 709.445312 C 328.277344 711.277344 328.1875 713.292969 328.148438 715.765625 Z M 333.449219 810.03125 C 330.296875 810.03125 327.46875 808.503906 325.695312 805.84375 C 324.1875 803.582031 323.59375 800.707031 323.980469 797.992188 C 322.929688 796.847656 322.148438 795.433594 321.683594 793.8125 C 316.871094 777.054688 313.476562 759.789062 311.59375 742.492188 C 311.429688 741.011719 311.234375 739.457031 311.03125 737.84375 C 310.75 735.625 310.457031 733.304688 310.222656 730.949219 C 308.222656 724.171875 306.109375 717.429688 303.992188 710.683594 L 301.464844 702.601562 C 300.453125 699.289062 301.054688 695.882812 302.980469 693.191406 C 302.453125 691.949219 302.292969 690.519531 302.578125 689.03125 C 305.160156 675.214844 317.144531 664.964844 328.183594 656.4375 L 329.945312 655.070312 C 337.332031 649.289062 348.511719 640.554688 358.992188 640.554688 C 361.464844 640.554688 363.78125 641.039062 365.886719 642.011719 C 365.976562 642.050781 366.058594 642.097656 366.148438 642.136719 C 379.386719 640.375 392.949219 639.359375 406.085938 638.371094 C 415.328125 637.679688 424.878906 636.964844 434.179688 635.996094 C 436.359375 635.007812 438.523438 634.480469 440.628906 634.410156 C 442.757812 634.410156 444.714844 635.257812 446.066406 636.667969 C 447.289062 637.9375 447.9375 639.566406 447.902344 641.257812 C 448.632812 642.65625 448.992188 644.152344 448.953125 645.640625 C 447.878906 679.378906 455.597656 710.9375 463.765625 744.347656 C 464.757812 748.394531 465.746094 752.4375 466.722656 756.492188 C 467.839844 761.164062 466.351562 765.347656 462.527344 768.28125 L 458.867188 771.089844 C 450.042969 777.882812 440.921875 784.910156 431.199219 790.941406 C 429.382812 792.066406 427.460938 792.636719 425.476562 792.636719 C 424.753906 792.636719 424.046875 792.558594 423.34375 792.410156 C 421.722656 793.699219 419.707031 794.574219 417.386719 794.988281 C 409.199219 796.449219 400.867188 797.613281 392.796875 798.746094 C 386.371094 799.644531 379.722656 800.578125 373.226562 801.644531 C 367.421875 802.609375 361.527344 804.082031 355.828125 805.511719 C 349.007812 807.222656 341.957031 808.992188 334.820312 809.941406 C 334.351562 810 333.890625 810.03125 333.449219 810.03125 " fill-opacity="1" fill-rule="nonzero"/><path fill="#424242" d="M 523.375 220.210938 C 523.027344 220.210938 522.667969 220.195312 522.3125 220.160156 C 519.570312 219.898438 517.800781 217.753906 517.0625 215.839844 C 514.429688 209.066406 520.25 203.304688 524.09375 199.484375 C 524.734375 198.851562 525.332031 198.261719 525.847656 197.703125 C 530.96875 192.191406 536.371094 186.835938 541.914062 181.375 C 543.472656 179.835938 545.492188 178.988281 547.597656 178.988281 C 550.921875 178.988281 554.128906 181.121094 555.402344 184.175781 C 556.589844 187.011719 555.953125 190.078125 553.6875 192.371094 L 551.925781 194.160156 C 547.308594 198.855469 542.539062 203.714844 538.144531 208.691406 C 537.390625 209.542969 536.660156 210.523438 535.910156 211.527344 C 533.019531 215.398438 529.417969 220.210938 523.375 220.210938 " fill-opacity="1" fill-rule="nonzero"/></svg>