<svg xmlns="http://www.w3.org/2000/svg" xmlns:xlink="http://www.w3.org/1999/xlink" width="1080" zoomAndPan="magnify" viewBox="0 0 810 809.999993" height="1080" preserveAspectRatio="xMidYMid meet" version="1.0"><defs><clipPath id="3562a87a66"><path d="M 64.292969 1 L 735 1 L 735 809 L 64.292969 809 Z M 64.292969 1 " clip-rule="nonzero"/></clipPath></defs><path fill="#424242" d="M 348.980469 311.542969 C 350.394531 335.199219 351.871094 358.792969 353.53125 382.390625 C 355.128906 405.492188 356.789062 428.59375 358.507812 451.695312 C 359.433594 463.738281 360.355469 475.78125 361.335938 487.824219 C 362.382812 500.730469 362.382812 514.617188 365.578125 527.148438 C 372.21875 552.957031 411.070312 547.121094 411.5 520.945312 C 411.683594 508.042969 408.242188 494.523438 406.335938 481.742188 C 404.675781 470.804688 403.078125 459.871094 401.480469 448.933594 C 398.097656 425.582031 394.78125 402.171875 391.582031 378.761719 C 388.507812 356.335938 385.558594 333.972656 382.667969 311.542969 C 379.59375 287.644531 377.875 263.679688 370.3125 240.699219 C 367.238281 231.421875 350.703125 229.085938 349.042969 240.699219 C 347.261719 252.867188 346.214844 264.539062 346.890625 276.828125 C 347.507812 288.378906 348.183594 299.992188 348.917969 311.542969 Z M 348.980469 311.542969 " fill-opacity="1" fill-rule="nonzero"/><path fill="#424242" d="M 403.140625 599.347656 C 401.972656 599.53125 400.867188 599.59375 399.757812 599.898438 C 397.546875 600.453125 395.394531 601.558594 393.304688 602.480469 C 387.894531 604.9375 383.34375 610.039062 380.273438 614.953125 C 378.613281 617.59375 377.445312 620.605469 376.460938 623.554688 C 375.476562 626.503906 375.167969 629.824219 374.984375 632.832031 C 374.984375 633.570312 374.984375 634.308594 374.984375 635.046875 C 375.167969 637.503906 375.476562 639.960938 375.96875 642.355469 C 376.089844 643.03125 376.335938 643.648438 376.582031 644.261719 C 377.445312 646.472656 378.242188 648.808594 379.472656 650.898438 C 383.652344 657.839844 390.167969 662.816406 397.851562 665.273438 C 399.328125 665.707031 400.988281 665.828125 402.402344 666.011719 C 404 666.195312 405.597656 666.503906 407.199219 666.503906 C 409.65625 666.503906 412.117188 666.011719 414.511719 665.644531 C 415.3125 665.519531 416.050781 665.398438 416.789062 665.152344 C 416.847656 665.152344 416.972656 665.152344 417.035156 665.152344 C 422.195312 663.921875 426.625 661.21875 430.558594 657.777344 C 430.679688 657.65625 430.804688 657.472656 430.925781 657.347656 C 431.050781 657.289062 431.109375 657.226562 431.234375 657.101562 C 431.789062 656.671875 432.339844 656.183594 432.832031 655.691406 C 434.429688 653.96875 435.84375 652.066406 437.195312 650.097656 C 437.566406 649.546875 437.933594 648.929688 438.242188 648.316406 C 440.699219 643.277344 441.621094 639.714844 442.054688 634.125 C 442.054688 633.449219 442.054688 632.832031 442.054688 632.15625 C 441.808594 629.699219 441.683594 627.117188 440.886719 624.722656 C 439.226562 619.621094 437.257812 616.671875 433.9375 612.617188 C 432.03125 610.34375 429.449219 608.5625 427.054688 606.902344 C 426.5 606.535156 425.824219 606.226562 425.210938 605.921875 C 422.875 604.199219 420.84375 602.972656 418.015625 601.742188 C 414.082031 600.082031 411.070312 599.46875 406.644531 599.039062 C 405.351562 598.917969 404.738281 599.039062 403.140625 599.285156 Z M 403.140625 599.347656 " fill-opacity="1" fill-rule="nonzero"/><g clip-path="url(#3562a87a66)"><path fill="#424242" d="M 97.183594 805.183594 C 113.042969 807.886719 129.824219 807.394531 145.625 807.949219 C 166.648438 808.683594 187.734375 807.949219 208.757812 807.394531 C 251.359375 806.289062 293.839844 803.644531 336.257812 799.777344 C 420.597656 792.09375 504.757812 780.175781 587.808594 763.707031 C 609.816406 759.34375 631.703125 754.492188 653.15625 747.792969 C 663.851562 744.476562 674.363281 740.789062 684.753906 736.550781 C 720.65625 721.925781 745.796875 700.789062 729.753906 659.992188 C 725.203125 648.378906 720.53125 636.828125 715.796875 625.335938 C 705.53125 600.511719 694.957031 575.75 683.953125 551.234375 C 662.746094 503.984375 640.0625 457.410156 616.148438 411.453125 C 567.953125 319.039062 514.777344 229.085938 457.113281 142.207031 C 441.316406 118.425781 424.71875 95.261719 407.996094 72.097656 C 399.574219 60.484375 391.089844 48.871094 382.546875 37.382812 C 373.449219 25.09375 364.164062 12.867188 351.746094 3.835938 C 347.136719 0.453125 341.480469 1.746094 337.546875 5.125 C 333.058594 3.34375 327.648438 4.386719 324.269531 9.917969 C 317.320312 21.160156 312.527344 33.695312 307.363281 45.800781 C 302.015625 58.394531 296.972656 71.113281 291.871094 83.835938 C 282.035156 108.226562 272.324219 132.683594 262.734375 157.199219 C 243.429688 206.660156 224.679688 256.304688 207.160156 306.445312 C 172.242188 406.042969 139.660156 506.382812 109.722656 607.640625 C 101.300781 636.152344 93.0625 664.660156 84.949219 693.292969 C 80.890625 707.609375 76.894531 721.863281 72.960938 736.179688 C 70.996094 743.371094 68.964844 750.496094 67.304688 757.746094 C 66.078125 762.972656 64.292969 768.5625 64.292969 773.847656 C 64.292969 778.824219 65.523438 783.984375 66.691406 788.839844 C 69.765625 802.109375 85.011719 808.992188 97.183594 805.242188 Z M 125.335938 756.886719 C 128.535156 744.414062 131.730469 731.941406 134.925781 719.46875 C 141.503906 694.09375 148.269531 668.714844 155.089844 643.339844 C 168.921875 592.21875 183.617188 541.28125 198.246094 490.40625 C 227.324219 389.148438 258.984375 288.5625 290.949219 188.164062 C 299.800781 160.394531 308.839844 132.621094 318 104.96875 C 322.671875 90.898438 327.402344 76.828125 332.136719 62.820312 C 335.148438 53.972656 338.285156 45 340.929688 35.96875 C 349.78125 52.621094 362.074219 68.164062 372.15625 83.527344 C 385.925781 104.539062 399.390625 125.738281 412.667969 147.121094 C 439.777344 190.867188 466.765625 234.617188 492.277344 279.347656 C 543.671875 369.546875 590.574219 462.328125 631.703125 557.625 C 641.90625 581.21875 652.355469 606.65625 662.5625 632.957031 C 667.542969 645.859375 672.457031 658.761719 677.253906 671.726562 C 679.714844 678.425781 682.050781 685.183594 684.753906 691.757812 C 681.1875 692.925781 677.621094 694.523438 673.628906 696.121094 C 664.097656 699.867188 654.445312 703.246094 644.671875 706.257812 C 625.921875 712.035156 606.867188 716.703125 587.746094 720.882812 C 548.15625 729.605469 508.261719 736.980469 468.242188 743.492188 C 386.789062 756.765625 304.71875 765 222.40625 770.710938 C 199.351562 772.308594 176.300781 773.230469 153.246094 774.523438 C 142.183594 775.136719 131.054688 776.058594 119.988281 776.796875 C 121.957031 770.222656 123.800781 763.585938 125.460938 756.949219 Z M 125.335938 756.886719 " fill-opacity="1" fill-rule="nonzero"/></g><path fill="#424242" d="M 525.71875 138.640625 C 528.117188 140.421875 528.300781 140.609375 526.210938 139.132812 C 528.054688 143.003906 533.34375 142.882812 536.109375 140.421875 C 536.109375 140.421875 536.109375 140.421875 536.171875 140.421875 C 539.859375 138.703125 541.640625 135.324219 543.179688 130.777344 C 544.960938 125.675781 546.621094 120.394531 547.910156 115.171875 C 550.371094 105.277344 552.523438 95.261719 554.796875 85.308594 C 557.070312 75.355469 559.59375 65.460938 561.3125 55.386719 C 562.910156 45.738281 568.199219 27.921875 554.734375 24.171875 C 540.78125 20.363281 537.832031 39.101562 535.679688 48.320312 C 533.34375 58.273438 531.867188 68.410156 530.144531 78.550781 C 528.425781 88.625 526.703125 98.765625 524.980469 108.839844 C 524 114.554688 523.628906 120.269531 523.136719 126.046875 C 522.890625 128.871094 522.523438 131.761719 523.324219 134.585938 C 523.753906 136.183594 524.613281 137.597656 525.78125 138.765625 Z M 525.71875 138.640625 " fill-opacity="1" fill-rule="nonzero"/><path fill="#424242" d="M 582.398438 184.664062 C 586.824219 184.664062 590.636719 184.046875 594.753906 182.511719 C 599.242188 180.855469 603.175781 178.210938 607.171875 175.691406 C 614.980469 170.777344 622.296875 165.371094 629.488281 159.59375 C 643.136719 148.535156 657.519531 136.492188 667.601562 121.992188 C 671.84375 115.90625 669.199219 107 663.792969 102.757812 C 657.949219 98.273438 649.589844 98.703125 644.242188 103.925781 C 638.464844 109.578125 633.605469 116.152344 628.257812 122.175781 C 622.726562 128.378906 616.949219 134.339844 610.984375 140.054688 C 605.207031 145.644531 599.304688 151.175781 593.339844 156.523438 C 590.390625 159.164062 587.070312 161.621094 584.429688 164.570312 C 581.355469 168.011719 579.140625 171.390625 577.296875 175.570312 C 575.515625 179.5625 577.542969 184.601562 582.460938 184.539062 Z M 582.398438 184.664062 " fill-opacity="1" fill-rule="nonzero"/><path fill="#424242" d="M 638.523438 224.417969 C 631.394531 225.03125 624.695312 226.445312 617.683594 228.042969 C 607.910156 230.316406 607.910156 245.554688 617.683594 247.828125 C 624.386719 249.425781 630.902344 250.839844 637.726562 251.390625 C 643.996094 251.945312 650.265625 252.433594 656.597656 252.988281 C 662.625 253.480469 668.648438 253.542969 674.671875 253.789062 C 681.125 254.03125 687.828125 254.832031 694.28125 254.339844 C 702.828125 253.601562 711.125 247.335938 710.695312 237.933594 C 710.265625 228.410156 703.503906 222.328125 694.28125 221.53125 C 688.136719 221.039062 681.617188 221.835938 675.410156 222.019531 C 669.140625 222.265625 662.808594 222.328125 656.539062 222.820312 C 650.511719 223.3125 644.488281 223.863281 638.464844 224.355469 Z M 638.523438 224.417969 " fill-opacity="1" fill-rule="nonzero"/></svg>