<svg xmlns="http://www.w3.org/2000/svg" xmlns:xlink="http://www.w3.org/1999/xlink" width="1080" zoomAndPan="magnify" viewBox="0 0 810 809.999993" height="1080" preserveAspectRatio="xMidYMid meet" version="1.0"><defs><clipPath id="b127291878"><path d="M 67.332031 3 L 563 3 L 563 740 L 67.332031 740 Z M 67.332031 3 " clip-rule="nonzero"/></clipPath></defs><path fill="#424242" d="M 214.652344 311.203125 L 455.722656 311.203125 L 455.722656 338.003906 L 214.652344 338.003906 Z M 214.652344 311.203125 " fill-opacity="1" fill-rule="nonzero"/><path fill="#424242" d="M 174.472656 391.601562 L 455.722656 391.601562 L 455.722656 418.398438 L 174.472656 418.398438 Z M 174.472656 391.601562 " fill-opacity="1" fill-rule="nonzero"/><path fill="#424242" d="M 174.472656 471.996094 L 455.722656 471.996094 L 455.722656 498.796875 L 174.472656 498.796875 Z M 174.472656 471.996094 " fill-opacity="1" fill-rule="nonzero"/><path fill="#424242" d="M 174.472656 552.394531 L 455.722656 552.394531 L 455.722656 579.191406 L 174.472656 579.191406 Z M 174.472656 552.394531 " fill-opacity="1" fill-rule="nonzero"/><path fill="#424242" d="M 295.011719 230.808594 L 455.722656 230.808594 L 455.722656 257.605469 L 295.011719 257.605469 Z M 295.011719 230.808594 " fill-opacity="1" fill-rule="nonzero"/><path fill="#424242" d="M 738.3125 766.78125 L 576.257812 470.65625 L 414.207031 766.78125 C 410.1875 774.824219 410.1875 785.542969 414.207031 793.582031 C 419.5625 801.621094 427.597656 806.980469 436.972656 806.980469 L 712.867188 806.980469 C 722.242188 806.980469 731.617188 801.621094 735.632812 793.582031 C 742.332031 785.542969 742.332031 776.164062 738.3125 766.78125 Z M 438.3125 780.183594 L 576.257812 526.933594 L 714.207031 780.183594 Z M 438.3125 780.183594 " fill-opacity="1" fill-rule="nonzero"/><path fill="#424242" d="M 562.867188 605.992188 L 589.652344 605.992188 L 589.652344 686.386719 L 562.867188 686.386719 Z M 562.867188 605.992188 " fill-opacity="1" fill-rule="nonzero"/><path fill="#424242" d="M 556.171875 733.285156 C 556.171875 744.003906 565.546875 753.382812 576.257812 753.382812 C 586.972656 753.382812 596.347656 744.003906 596.347656 733.285156 C 596.347656 722.566406 586.972656 713.1875 576.257812 713.1875 C 565.546875 713.1875 556.171875 722.566406 556.171875 733.285156 Z M 556.171875 733.285156 " fill-opacity="1" fill-rule="nonzero"/><g clip-path="url(#b127291878)"><path fill="#424242" d="M 94.117188 304.503906 L 241.4375 197.308594 L 241.4375 29.816406 L 536.082031 29.816406 L 536.082031 431.800781 L 562.867188 431.800781 L 562.867188 29.816406 C 562.867188 15.078125 550.8125 3.019531 536.082031 3.019531 L 220.011719 3.019531 L 67.332031 295.125 L 67.332031 713.1875 C 67.332031 727.925781 79.386719 739.984375 94.117188 739.984375 L 388.761719 739.984375 L 388.761719 713.1875 L 94.117188 713.1875 Z M 119.5625 253.585938 L 214.652344 71.355469 L 214.652344 183.910156 Z M 119.5625 253.585938 " fill-opacity="1" fill-rule="nonzero"/></g></svg>