<svg width="173" height="176" viewBox="0 0 173 176" fill="none" xmlns="http://www.w3.org/2000/svg">
<path d="M147.298 18.2423H25.1484L35.9262 142.29L86.223 156.884L136.52 142.29L147.298 18.2423Z" fill="#151531"/>
<path d="M86.223 29.1877V145.574L126.46 133.899L135.442 29.1877H86.223Z" fill="#2E2E4D"/>
<path d="M118.916 47.4301H86.223V62.0239H103.827L102.749 76.6178H86.223V91.2117H102.031L100.953 107.63L86.223 112.738V128.061L114.605 118.575L117.12 76.6178L118.916 47.4301Z" fill="white"/>
<path d="M86.223 47.4301V62.0239H54.2486L53.1708 47.4301H86.223ZM69.6969 76.6178L70.4154 91.2117H86.223V76.6178H69.6969ZM71.134 98.5086H56.7635L57.8412 118.575L86.223 128.061V112.738L71.4932 107.63L71.134 98.5086Z" fill="#EEEEEE"/>
</svg>
