<svg width="56" height="56" viewBox="0 0 56 56" fill="none" xmlns="http://www.w3.org/2000/svg">
<path d="M28 4.66666C15.113 4.66666 4.66666 15.113 4.66666 28C4.66666 38.3682 11.4345 47.1462 20.79 50.1853H35.21C44.5655 47.1462 51.3333 38.3682 51.3333 28C51.3333 15.113 40.887 4.66666 28 4.66666Z" fill="url(#paint0_linear_33_2)"/>
<path opacity="0.05" d="M35.0117 48.9953L35 42.231C35 41.1355 34.7433 40.0657 34.251 39.0962C40.8322 37.7743 44.0347 33.8835 44.0347 27.223C44.0347 24.5922 43.2588 22.2693 41.7293 20.3163C41.846 19.9465 41.9323 19.5638 41.986 19.1718C42.2053 17.5747 41.9592 16.5305 41.7608 15.6905L41.7293 15.5552C41.5123 14.6265 41.2522 13.9638 41.2417 13.9358L41.1122 13.6068L40.9827 13.2778L40.6303 13.2405L40.2768 13.2032C40.2768 13.2032 40.0447 13.1787 39.6923 13.1787C39.2035 13.1787 38.479 13.2277 37.7942 13.4598L37.5655 13.5368C36.7022 13.8273 35.8867 14.1027 34.7457 14.784C34.412 14.9835 34.0468 15.211 33.656 15.4653C31.8897 15.0278 29.9892 14.805 28 14.805C25.991 14.805 24.0742 15.029 22.2962 15.4712C21.9007 15.2145 21.5332 14.9847 21.1972 14.784C20.0562 14.1027 19.2407 13.8285 18.3773 13.5368L18.1487 13.4598C17.4662 13.2277 16.7405 13.1787 16.2517 13.1787C15.8993 13.1787 15.6672 13.2032 15.6672 13.2032L15.3148 13.2405L14.9648 13.2767L14.8342 13.6045L14.7023 13.9347C14.6907 13.965 14.4305 14.6277 14.2135 15.5575L14.182 15.6917C13.9837 16.5305 13.7375 17.5758 13.9568 19.1718C14.0128 19.5755 14.1027 19.971 14.2252 20.3513C12.726 22.295 11.9665 24.605 11.9665 27.223C11.9665 33.8672 15.1725 37.7557 21.763 39.088C21.5367 39.5407 21.3605 40.019 21.2357 40.516C21.0058 40.5942 20.7947 40.6467 20.608 40.6758C20.3303 40.7178 20.0398 40.7388 19.7458 40.7388C18.9455 40.7388 18.3167 40.5825 18.0717 40.4367C17.7065 40.2197 17.0543 39.5885 16.422 38.6657C15.8818 37.8782 15.0395 36.848 14.098 36.4175C13.2837 36.0453 12.4215 35.8318 11.7308 35.8318C11.5698 35.8318 11.4217 35.8435 11.2922 35.8645C10.689 35.9602 10.185 36.2915 9.91083 36.7745C9.67399 37.191 9.63666 37.6763 9.80816 38.1057C10.0637 38.745 10.801 39.2548 11.375 39.5698C11.6573 39.725 12.2675 40.292 12.6233 40.8637C12.8905 41.293 13.0142 41.5987 13.1857 42.021C13.2872 42.2718 13.3992 42.5448 13.5508 42.875C14.0992 44.0673 15.8107 45.1197 16.0043 45.2352C16.9447 45.7987 18.5255 45.9795 19.6875 46.032L19.831 46.0355H19.8322C20.1122 46.0355 20.4972 46.0087 21.0035 45.9527V49.0012C21.0058 49.6183 20.377 49.7583 19.5452 49.7455L20.1833 49.9602C22.6275 50.834 25.2525 51.3333 28 51.3333C30.7475 51.3333 33.3725 50.834 35.8202 49.9613L36.6403 49.6557C35.8108 49.6277 35.0187 49.4923 35.0117 48.9953Z" fill="#151531"/>
<path opacity="0.07" d="M35.9112 49.9298C35.4375 49.9847 34.4167 49.8027 34.4167 49.0023V42.231C34.4167 40.9547 34.034 39.7215 33.3247 38.6703C40.2255 37.5538 43.4502 33.8952 43.4502 27.223C43.4502 24.6132 42.6498 22.33 41.0713 20.4307C41.2312 20.0048 41.3432 19.5557 41.4073 19.0925C41.6115 17.6038 41.3887 16.6588 41.1927 15.8247L41.1612 15.6893C40.9535 14.8015 40.7085 14.1762 40.698 14.1505L40.5685 13.8215L40.215 13.7842C40.215 13.7842 40.0073 13.762 39.6912 13.762C39.2467 13.762 38.5898 13.8052 37.9808 14.0128L37.7522 14.0898C36.9192 14.371 36.1317 14.6358 35.0443 15.2845C34.657 15.5155 34.2253 15.7873 33.7598 16.0942C31.9713 15.6263 30.0358 15.3883 28 15.3883C25.9443 15.3883 23.9925 15.6275 22.1912 16.1C21.721 15.7908 21.287 15.5178 20.8973 15.2845C19.81 14.6358 19.0225 14.3698 18.1895 14.0898L17.9608 14.0128C17.353 13.8063 16.695 13.762 16.2505 13.762C15.9343 13.762 15.7267 13.7842 15.7267 13.7842L15.3743 13.8215L15.2425 14.1517C15.232 14.1773 14.987 14.8027 14.7793 15.6905L14.7478 15.8258C14.5507 16.66 14.3278 17.6038 14.5332 19.0925C14.5985 19.5673 14.7152 20.027 14.8808 20.4622C13.3327 22.3522 12.5487 24.6237 12.5487 27.223C12.5487 33.8765 15.7757 37.534 22.6823 38.6633C22.2215 39.3517 21.8995 40.1275 21.7338 40.9547C21.3488 41.1063 21 41.2067 20.6943 41.2533C20.3875 41.3 20.0678 41.3233 19.7447 41.3233C18.9397 41.3233 18.1662 41.1728 17.773 40.9395C17.2597 40.635 16.5398 39.8732 15.939 38.997C15.5307 38.402 14.7175 37.3438 13.853 36.9495C13.1122 36.6112 12.3387 36.4163 11.7285 36.4163C11.6002 36.4163 11.4835 36.4257 11.3808 36.442C10.9538 36.5097 10.6015 36.736 10.4148 37.065C10.2655 37.3263 10.241 37.6285 10.346 37.891C10.5548 38.4137 11.3283 38.8827 11.6515 39.06C12.0423 39.2747 12.7237 39.928 13.1145 40.558C13.4073 41.0293 13.5462 41.3712 13.7223 41.8028C13.8215 42.0467 13.93 42.3127 14.077 42.6335C14.4632 43.4723 15.6555 44.3508 16.2995 44.737C17.1792 45.2643 18.8125 45.4113 19.7085 45.451L19.838 45.4533C20.1868 45.4533 20.7713 45.4008 21.5822 45.2958V49.0023C21.5822 49.9112 20.426 49.9473 20.1425 49.9473C20.1063 49.9473 20.7293 50.162 20.7293 50.162C23.0195 50.9133 25.459 51.3333 28 51.3333C30.541 51.3333 32.9805 50.9133 35.2695 50.1632C35.2695 50.1632 35.9473 49.9252 35.9112 49.9298Z" fill="#151531"/>
<path d="M42.868 27.223C42.868 24.528 41.9557 22.2927 40.3982 20.5403C40.5673 20.1612 40.7435 19.6525 40.831 19.0132C41.0317 17.5548 40.7948 16.6798 40.5942 15.8235C40.3935 14.9672 40.1567 14.3652 40.1567 14.3652C40.1567 14.3652 39.081 14.2555 38.1698 14.5658C37.2587 14.8762 36.4747 15.113 35.3442 15.7873C34.8157 16.1023 34.2837 16.4477 33.8625 16.7277C32.0623 16.2283 30.0825 15.9717 28 15.9717C25.8988 15.9717 23.9015 16.2295 22.0885 16.7323C21.6662 16.4512 21.1307 16.1035 20.5987 15.7862C19.4682 15.1118 18.6842 14.875 17.773 14.5647C16.8618 14.2543 15.7862 14.364 15.7862 14.364C15.7862 14.364 15.5493 14.966 15.3487 15.8223C15.148 16.6787 14.9112 17.5537 15.1118 19.012C15.2017 19.6677 15.3837 20.1857 15.5575 20.5672C14.0292 22.309 13.1332 24.5303 13.1332 27.2218C13.1332 34.202 16.9038 37.3882 23.7743 38.2293C22.9728 39.0763 22.435 40.1613 22.2542 41.3688C21.8027 41.5672 21.2823 41.7538 20.7818 41.8285C19.4938 42.0233 18.1323 41.8285 17.4767 41.44C16.821 41.0515 16.0428 40.1765 15.4595 39.3248C14.9672 38.6062 14.2567 37.772 13.6127 37.478C12.7622 37.0895 11.935 36.9437 11.4742 37.016C11.0122 37.0895 10.794 37.429 10.8908 37.6728C10.9877 37.9155 11.4497 38.2807 11.9362 38.5478C12.4227 38.815 13.1763 39.5442 13.6138 40.2488C14.1015 41.0352 14.1972 41.489 14.6102 42.3873C14.9007 43.0197 15.8947 43.8095 16.6028 44.2342C17.2107 44.5993 18.4252 44.807 19.7388 44.8665C20.1927 44.8875 21.2648 44.7545 22.169 44.6262V49.0012C22.169 49.7467 21.4865 50.3137 20.7795 50.183C23.0487 50.946 25.4718 51.3333 28 51.3333C30.527 51.3333 32.9502 50.946 35.2217 50.1853C34.5158 50.3148 33.8333 49.7478 33.8333 49.0023V42.231C33.8333 40.6805 33.2185 39.2793 32.2315 38.2352C39.0519 37.4162 42.868 34.3058 42.868 27.223ZM13.1122 38.1815C12.9325 38.0893 12.8357 37.919 12.8963 37.7988C12.957 37.6787 13.153 37.6565 13.3327 37.7487C13.5123 37.8408 13.6092 38.0112 13.5485 38.1313C13.4878 38.2515 13.2918 38.2737 13.1122 38.1815ZM14.5262 39.0623C14.4317 39.165 14.2287 39.1323 14.0723 38.99C13.916 38.8477 13.8658 38.6482 13.9603 38.5455C14.0548 38.4428 14.2578 38.4755 14.4142 38.6178C14.5705 38.7602 14.6207 38.9597 14.5262 39.0623ZM15.4058 40.5207C15.2868 40.6047 15.085 40.5265 14.9555 40.3457C14.826 40.1648 14.8178 39.949 14.9368 39.865C15.0558 39.781 15.2577 39.8592 15.3872 40.04C15.5155 40.2208 15.5248 40.4367 15.4058 40.5207ZM16.6693 41.6185C16.5888 41.7492 16.3602 41.755 16.1595 41.6325C15.9588 41.51 15.8608 41.3047 15.9413 41.174C16.0218 41.0433 16.2505 41.0375 16.4512 41.16C16.6518 41.2825 16.7498 41.4878 16.6693 41.6185ZM17.864 42.693C17.6155 42.6627 17.4312 42.5075 17.4522 42.3465C17.472 42.1855 17.6902 42.0805 17.9375 42.1108C18.186 42.1412 18.3703 42.2963 18.3493 42.4573C18.3295 42.6172 18.1125 42.7233 17.864 42.693ZM19.7902 42.9718C19.5253 42.9567 19.3188 42.805 19.3293 42.6347C19.3398 42.4643 19.5627 42.3372 19.8275 42.3523C20.0923 42.3675 20.2988 42.5192 20.2883 42.6895C20.2778 42.861 20.055 42.987 19.7902 42.9718ZM21.6078 42.7898C21.3255 42.7898 21.0968 42.6428 21.0968 42.462C21.0968 42.2812 21.3255 42.1342 21.6078 42.1342C21.8902 42.1342 22.1188 42.2812 22.1188 42.462C22.1188 42.6428 21.889 42.7898 21.6078 42.7898Z" fill="#151531"/>
<defs>
<linearGradient id="paint0_linear_33_2" x1="4.66666" y1="27.426" x2="51.3333" y2="27.426" gradientUnits="userSpaceOnUse">
<stop stop-color="#C051FF"/>
<stop offset="1" stop-color="#421A92"/>
</linearGradient>
</defs>
</svg>
