<svg width="95" height="95" viewBox="0 0 95 95" fill="none" xmlns="http://www.w3.org/2000/svg">
<path d="M89.0625 32.0625L79.1666 37.5052L69.2708 46.9062V79.1667H83.125C86.4045 79.1667 89.0625 76.5086 89.0625 73.2292V32.0625Z" fill="#151531"/>
<path d="M5.9375 32.0625L13.0902 35.4469L25.7292 46.9062V79.1667H11.875C8.59552 79.1667 5.9375 76.5086 5.9375 73.2292V32.0625Z" fill="#421A92"/>
<path d="M69.2708 22.1667L47.5 38.4949L25.7292 22.1667L23.75 33.6459L25.7292 46.9063L47.5 63.2345L69.2708 46.9063L71.25 33.6459L69.2708 22.1667Z" fill="#C051FF"/>
<path d="M5.9375 24.3397V32.0624L25.7292 46.9062V22.1666L19.5463 17.5334C18.0738 16.429 16.2846 15.8333 14.444 15.8333C9.74542 15.8333 5.9375 19.6412 5.9375 24.3397Z" fill="#743BE6"/>
<path d="M89.0625 24.3397V32.0624L69.2708 46.9062V22.1666L75.4537 17.5334C76.9262 16.429 78.7154 15.8333 80.556 15.8333C85.2546 15.8333 89.0625 19.6412 89.0625 24.3397Z" fill="#26265B"/>
</svg>
