<svg width="175" height="175" viewBox="0 0 175 175" fill="none" xmlns="http://www.w3.org/2000/svg">
<path d="M148.824 18.8533H25.409L36.2985 142.268L87.1165 156.788L137.934 142.268L148.824 18.8533Z" fill="#151531"/>
<path d="M87.1165 29.7428V145.535L127.771 133.92L136.845 29.7428H87.1165Z" fill="#2E2E4D"/>
<path d="M87.1165 91.4503V76.9309H118.333L115.792 118.674L87.1165 128.112V112.866L101.999 107.785L103.088 91.4503H87.1165ZM119.422 62.4115L120.511 47.8921H87.1165V62.4115H119.422Z" fill="white"/>
<path d="M87.1165 112.866V128.112L58.4406 118.674L56.9887 98.71H71.5081L72.2341 107.785L87.1165 112.866ZM69.3302 62.4115H87.1165V47.8921H54.0848L56.6257 91.4503H87.1165V76.9309H70.4191L69.3302 62.4115Z" fill="#EEEEEE"/>
</svg>
