<svg width="173" height="169" viewBox="0 0 173 169" fill="none" xmlns="http://www.w3.org/2000/svg">
<path d="M48 58H154.095V145.775H48V58Z" fill="white"/>
<path d="M149.539 13H23.1929C18.1186 13 14 17.0371 14 22.0109V145.842C14 150.815 18.1186 154.852 23.1929 154.852H149.525C154.599 154.852 158.718 150.815 158.718 145.855V22.0109C158.718 17.0371 154.599 13 149.539 13ZM93.2504 121.698C93.2504 135.195 85.1746 141.343 73.384 141.343C62.7239 141.343 55.0385 134.337 51.9024 127.833L62.7374 121.408C64.8237 125.036 68.0001 127.833 72.5764 127.833C76.9508 127.833 79.4678 126.157 79.4678 119.64V77.1713H93.2504L93.2504 121.698ZM123.144 141.343C110.936 141.343 104.005 135.313 100.142 127.833L110.479 121.078C113.292 125.59 116.361 129.904 122.848 129.904C128.299 129.904 131.153 127.239 131.153 123.545C131.153 119.139 128.192 117.569 122.202 114.996L118.918 113.611C109.429 109.653 103.116 104.692 103.116 94.1905C103.116 84.5331 110.64 77.1713 122.377 77.1713C130.736 77.1713 136.739 80.0211 141.073 87.4884L130.843 93.9398C128.582 89.9687 126.159 88.4119 122.377 88.4119C118.528 88.4119 116.091 90.8131 116.091 93.9398C116.091 97.8054 118.528 99.3622 124.167 101.763L127.451 103.149C138.636 107.832 144.935 112.621 144.935 123.387C144.935 134.984 135.635 141.343 123.144 141.343Z" fill="#151531"/>
</svg>
