<svg width="172" height="172" viewBox="0 0 172 172" fill="none" xmlns="http://www.w3.org/2000/svg">
<path d="M84.7458 89.2178C81.1697 83.4522 78.5753 78.672 74.9812 69.6707C68.9039 54.4666 111.943 40.7281 94.4925 14.3297C102.057 32.5653 67.3416 43.8385 64.1166 59.0246C61.1675 72.9925 84.7279 89.2178 84.7458 89.2178Z" fill="#2E2E4D"/>
<path d="M85.5628 61.8842C84.8748 70.8999 93.5501 75.7051 93.8009 82.2913C94.0016 87.652 88.6158 92.1204 88.6158 92.1204C88.6158 92.1204 98.3912 90.1997 101.441 82.0225C104.827 72.9424 94.8687 66.7253 95.8936 59.4547C96.8503 52.5102 117.505 39.5923 117.505 39.5923C117.505 39.5923 87.1144 41.6061 85.5628 61.8842Z" fill="#2E2E4D"/>
<path d="M114.968 89.7804C121.253 88.3686 126.553 92.3712 126.553 96.9829C126.553 107.378 112.144 117.204 112.144 117.204C112.144 117.204 134.45 114.545 134.45 97.4774C134.45 86.1899 123.496 83.3698 114.968 89.7804ZM104.379 98.1654C104.379 98.1654 111.334 93.2097 113.187 91.3499C96.1193 94.9727 57.1506 95.46 57.1506 92.3138C57.1506 89.4149 69.7173 86.4443 69.7173 86.4443C69.7173 86.4443 41.8641 86.043 41.8641 94.2596C41.8641 102.824 78.3245 103.436 104.379 98.1654Z" fill="#151531"/>
<path d="M100.1 105.963C83.9432 111.334 54.1836 109.618 62.9986 102.405C58.7057 102.405 52.3418 105.855 52.3418 109.173C52.3418 115.828 84.5272 120.966 108.349 111.223L100.1 105.963Z" fill="#151531"/>
<path d="M66.9582 117.315C61.0958 117.315 57.3011 121.092 57.3011 123.844C57.3011 132.411 92.2744 133.275 106.131 124.578L97.3233 118.73C86.9711 123.281 60.9668 123.908 66.9582 117.315Z" fill="#151531"/>
<path d="M130.007 131.265C130.007 127.911 126.227 126.33 124.872 125.574C132.856 144.827 44.9028 143.333 44.9028 131.967C44.9028 129.383 51.3778 126.853 57.362 128.05L52.2737 125.044C40.3483 123.173 32.25 128.416 32.25 132.644C32.25 152.363 130.007 151.414 130.007 131.265Z" fill="#151531"/>
<path d="M139.75 138.331C124.893 153.005 87.2219 158.351 49.3389 149.285C87.2219 165.421 139.571 156.334 139.75 138.331Z" fill="#151531"/>
</svg>
