<svg width="283" height="283" viewBox="0 0 283 283" fill="none" xmlns="http://www.w3.org/2000/svg">
<mask id="mask0_5_196" style="mask-type:luminance" maskUnits="userSpaceOnUse" x="30" y="28" width="223" height="227">
<path d="M30.9804 28.3H252.115V254.697H30.9804V28.3Z" fill="white"/>
</mask>
<g mask="url(#mask0_5_196)">
<path d="M71.8608 92.5131C70.3937 96.1325 67.6601 98.2902 63.5384 98.948C60.3872 99.4489 56.6368 100.011 54.4586 101.985C50.3683 105.693 45.9151 106.595 40.8204 106.503C40.1571 106.493 39.098 107.109 38.8851 107.681C38.3993 108.99 38.1904 110.445 38.1481 111.849C38.1331 112.377 38.8633 113.37 39.3041 113.398C43.1446 113.653 46.8882 113.842 50.4366 111.492C56.8019 107.276 63.3856 103.628 71.1184 102.056C77.4141 100.775 80.8138 96.2499 79.8421 89.7958C78.8567 83.2476 79.8734 77.6998 84.309 72.6024C87.1204 69.372 89.5115 65.7075 91.6556 61.9858C93.9033 58.0839 94.033 53.8108 92.1373 49.6318C91.8739 49.0504 91.197 48.3558 90.6279 48.2684C88.4743 47.9395 86.5267 50.16 86.7915 52.345C86.9607 53.7398 87.5121 55.4526 86.943 56.5117C84.2639 61.4999 81.7582 66.7229 78.2016 71.0534C75.5266 74.3111 72.8653 77.1894 72.5623 81.5526C72.445 83.2244 72.3835 84.9004 72.2962 86.575M205.951 225.101C205.949 224.84 205.946 224.58 205.943 224.319C204.862 224.016 203.781 223.458 202.703 223.466C200.558 223.481 198.403 223.727 196.274 224.026C192.134 224.607 188.016 225.322 183.879 225.925C173.868 227.39 164.279 225.311 155.239 221.396C144.051 216.549 133.094 211.13 122.231 205.583C110.945 199.82 98.9407 196.8 86.5649 194.62C79.4667 193.37 72.4886 191.608 65.2103 191.477C60.3148 191.388 55.575 191.859 50.4298 193.403C51.4452 195.58 52.2845 197.55 53.3012 199.423C53.5196 199.825 54.4026 200.092 54.954 200.053C60.2111 199.685 65.4573 199.016 70.7199 198.866C77.4032 198.675 84.0988 198.854 90.7889 198.932C95.9792 198.994 101.104 199.269 105.703 202.244C107.218 203.224 109.107 203.63 110.832 204.281C115.919 206.203 121.116 207.878 126.063 210.108C130.034 211.898 133.639 214.483 137.524 216.487C142.042 218.815 146.652 220.979 151.291 223.061C160.305 227.107 169.216 231.118 179.63 230.387C187.284 229.851 194.766 228.749 202.17 226.929C203.499 226.601 204.695 225.723 205.951 225.101ZM83.0575 51.6476C68.2838 59.824 56.1973 70.1035 48.485 84.94C45.3159 91.0391 42.3134 97.2366 40.3236 104.176C44.3934 104.439 47.9786 104.553 50.6549 102.02C54.1556 98.7065 58.2254 97.2571 62.882 96.8586C67.2452 96.4846 69.8205 93.5626 69.8519 89.1749C69.8669 87.1591 69.7727 85.1324 69.9515 83.1316C70.3732 78.4204 71.143 74.06 75.2987 70.6535C79.3944 67.2934 82.1158 62.6109 83.4219 57.3824C83.7999 55.8716 83.2485 54.1301 83.0575 51.6476ZM142.251 52.6248C139.43 57.6758 136.701 62.7787 134.05 67.9226C131.286 73.2834 133.149 77.4173 138.92 79.081C141.485 79.8207 144.003 80.7364 146.588 81.3929C151.126 82.5434 155.647 83.9792 160.268 84.5401C169.586 85.6728 178.704 83.9573 187.567 81.18C198.041 77.8964 207.476 72.3854 216.877 66.8458C220.19 64.8928 220.194 64.8996 217.477 61.9285C217.421 61.8684 217.372 61.7975 217.316 61.736C215.498 59.8526 214.322 59.8417 212.164 61.3935C208.701 63.8815 205.386 66.7038 201.611 68.5968C196.562 71.1312 191.127 72.9026 185.866 75.0221C181.155 76.9178 176.242 77.7817 171.349 76.3623C165.658 74.7151 160.196 72.2817 154.513 70.6057C147.681 68.5899 147.445 60.4504 150.375 55.8948C154.276 49.8311 159.853 45.4051 165.733 41.3545C168.166 39.6785 170.553 37.9384 173.152 36.0933C169.217 33.7827 164.279 33.8973 161.011 35.6524C155.194 38.775 150.922 43.6678 146.293 48.1442M175.989 74.4312C179.12 73.57 182.577 72.687 185.989 71.6539C187.826 71.1011 189.554 70.1881 191.388 69.619C198.288 67.4763 204.072 63.3001 210.062 59.4951C211.629 58.5015 211.462 57.407 210.241 56.221C209.044 55.0582 208.004 53.7043 206.699 52.6821C203.106 49.8666 199.676 46.6826 195.691 44.5658C190.615 41.8704 185.084 40.0197 179.689 37.9616C178.727 37.5945 177.181 37.5699 176.401 38.1077C170.473 42.1965 164.507 46.2663 158.899 50.7701C156.425 52.7585 154.473 55.5713 152.785 58.3186C150.495 62.0472 152.355 66.3558 156.491 67.7765C160.132 69.0267 163.783 70.2509 167.427 71.4928C170.096 72.4031 172.764 73.323 175.989 74.4312ZM145.492 32.033C143.8 32.8151 142.222 33.2559 141.014 34.1798C139.606 35.2567 138.624 36.878 137.273 38.0517C134.552 40.4155 131.342 42.3153 128.986 44.982C123.747 50.912 118.288 56.6986 114.412 63.7245C110.354 71.0807 110.87 81.9948 118.715 88.4229C125.465 93.9557 133.486 95.7763 141.582 97.2557C148.232 98.4717 155.069 99.1418 161.826 99.1637C168.783 99.1869 175.731 99.5089 182.772 98.0473C191.479 96.2389 199.796 93.6008 207.633 89.6402C213.112 86.8725 218.108 83.1439 223.299 79.8125C224.637 78.9527 226.029 78.0983 227.133 76.9792C227.661 76.4456 228.021 74.8379 227.686 74.5103C225.918 72.7935 225.677 69.3105 222.636 69.2614C220.899 69.2328 219.059 70.2495 217.409 71.0793C209.705 74.9607 202.211 79.3062 194.321 82.7509C189.472 84.8676 184.066 85.7329 178.876 87.0281C172.139 88.7095 165.227 89.6744 158.407 88.2646C150.873 86.706 143.412 84.6329 136.093 82.2541C130.003 80.2724 128.615 77.3805 129.311 71.0834C129.984 65.0115 133.55 60.2457 136.445 55.1878C137.8 52.82 139.252 50.4671 140.966 48.3544C143.308 45.4652 145.645 42.5923 148.792 40.3759C151.412 38.5335 153.515 35.9568 156.177 33.3883C154.314 33.0853 152.47 32.7441 150.614 32.493M132.817 249.719C134.164 249.808 135.259 249.827 136.341 249.956C149.45 251.541 157.249 252.3 168.797 246.427C170.28 245.674 173.026 245.322 176.781 242.805C177.212 242.516 177.686 242.288 178.177 242.123C178.764 241.926 178.911 241.874 179.135 241.795C180.119 241.451 181.089 241.072 182.057 240.685C185.833 239.175 190.055 238.765 193.225 235.745C194.805 234.241 196.79 233.16 198.593 231.888C197.914 231.562 197.439 231.671 196.96 231.723C189.827 232.501 182.709 233.617 175.555 233.937C169.595 234.203 163.776 232.938 158.394 229.961C155.784 228.517 152.822 227.726 150.084 226.496C145.672 224.514 141.265 222.507 136.942 220.338C133.309 218.515 129.797 216.447 126.195 214.469C125.363 214.117 125.869 214.117 124.353 213.612C123.343 213.107 123.675 213.394 122.534 212.83C119.453 211.307 116.269 209.982 113.073 208.712C108.41 206.858 103.701 205.115 99.0076 203.334C98.388 203.098 97.7588 202.795 97.1147 202.731C88.7049 201.885 80.3184 200.592 71.8199 201.616C67.4185 202.147 62.9953 202.498 58.5939 203.019C57.85 203.108 57.1622 203.655 56.4484 203.989C56.9984 204.651 57.4938 205.369 58.1094 205.964C58.946 206.774 59.7075 208.059 60.7174 209.069C61.7274 210.584 65.3468 215.108 68.1159 218.19C74.7664 225.591 81.9261 232.384 91.2802 236.277C98.0837 239.111 104.832 242.323 111.917 244.17M220.237 212.323C218.032 212.043 216.624 211.644 215.242 211.728C208.908 212.11 202.63 211.391 196.585 209.792C189.158 207.828 181.818 205.395 174.653 202.616C163.65 198.353 153.412 192.491 144.047 185.357C136.115 179.314 128.61 172.691 121.122 166.091C113.485 159.36 104.809 154.464 95.0757 151.915C90.4969 150.715 85.4294 151.314 80.5804 151.224C66.5328 150.965 53.3326 154.478 40.632 160.248C38.9138 161.029 38.3351 161.945 38.952 163.739C40.0875 167.05 41.0988 170.404 42.2179 173.72C43.5554 177.689 45.0962 181.595 46.274 185.607C47.1093 188.45 49.1551 188.634 51.3865 188.409C61.0996 187.425 70.7144 187.552 80.2979 189.809C87.1409 191.42 94.1285 192.411 101.002 193.908C107.15 195.248 113.126 197.085 118.733 200.139C122.543 202.215 126.748 203.559 130.717 205.361C135.971 207.747 141.136 210.33 146.398 212.698C152.858 215.604 159.216 218.868 165.914 221.078C174.024 223.753 182.476 222.838 190.699 221.083C196.495 219.847 202.2 218.961 208.115 220.102C209.423 220.353 211.24 220.364 212.187 219.643C214.854 217.618 217.189 215.155 220.237 212.323ZM245.238 142.158C241.32 145.237 237.504 148.461 233.464 151.37C228.526 154.927 223.92 159.057 217.964 161.002C214.146 162.249 210.428 163.981 206.519 164.715C201.696 165.62 196.73 165.882 191.811 166.111C187.799 166.298 183.714 166.417 179.757 165.877C173.018 164.955 167.137 161.808 161.342 158.26C154.136 153.849 147.699 148.749 141.822 142.632C133.502 133.974 123.197 128.153 111.207 126.553C105.348 125.771 99.2273 126.8 93.2387 127.218C90.9295 127.378 88.5712 127.859 86.3889 128.631C79.6633 131.007 72.9813 133.512 66.3403 136.115C55.9257 140.198 46.7012 146.266 38.155 153.405C36.5131 154.776 37.3197 156.561 37.8315 158.093C38.4334 159.893 39.8514 158.837 40.7931 158.482C43.6209 157.415 46.3504 156.093 49.166 154.994C61.3794 150.223 74.1987 149.299 87.1177 149.341C91.1015 149.355 95.1821 149.723 99.0363 150.673C102.144 151.437 105.148 153.048 107.892 154.77C113.184 158.091 118.469 161.488 123.367 165.348C128.55 169.433 133.096 174.325 138.257 178.441C143.218 182.399 148.537 185.928 153.831 189.448C163.282 195.727 173.331 200.793 184.227 204.159C191.707 206.468 199.246 208.426 207.038 209.233C211.701 209.715 216.387 209.977 221.065 210.303C221.424 210.327 221.91 210.187 222.155 209.941C223.324 208.773 224.533 207.621 225.533 206.315C227.63 203.574 229.655 200.775 231.615 197.935C233.441 195.289 235.493 192.716 236.812 189.823C238.351 186.447 239.189 182.753 240.357 179.206C241.871 174.615 243.96 170.132 244.813 165.425C246.29 157.294 247.003 149.026 248.036 140.815M119.026 49.09C122.691 44.8701 126.897 41.1238 130.827 37.1332C131.674 36.272 132.334 35.2294 133.268 34.0284C132.956 33.7868 132.608 33.2927 132.319 33.3269C128.773 33.7281 125.181 33.9615 121.711 34.7326C118.16 35.5241 114.794 37.1851 111.233 37.8825C105.479 39.0098 100.675 41.9345 95.8727 44.9875C94.654 45.7627 94.3619 46.6689 94.7372 48.0637C95.3677 50.3988 96.2753 52.7968 96.2357 55.1537C96.1156 62.2792 92.3502 67.9403 87.6431 72.7962C83.4505 77.1225 81.5316 81.8051 82.3764 87.7869C83.658 96.8722 79.0587 103.116 70.0184 104.769C63.3842 105.983 57.8214 109.485 52.421 113.17C50.3861 114.56 48.4577 115.649 46.0393 115.71C43.2128 115.785 40.3836 115.729 37.2965 115.729C36.3193 126.773 33.0111 137.39 36.4845 148.663C37.7019 147.945 38.6436 147.458 39.5156 146.865C47.0124 141.783 54.4504 136.606 62.9529 133.246C74.8647 128.538 86.4298 122.702 99.6668 122.433C102.922 122.366 106.2 121.528 109.413 121.774C112.092 121.977 114.664 123.352 117.33 124.029C128.223 126.798 137.47 132.317 145.077 140.557C149.291 145.123 153.857 149.236 159.235 152.401C162.04 154.05 164.722 155.933 167.618 157.392C170.433 158.811 173.359 160.332 176.405 160.899C180.896 161.733 185.532 161.971 190.115 162.087C197.512 162.274 204.896 162.025 211.746 158.622C212.037 158.477 212.429 158.529 212.721 158.383C217.194 156.161 222.049 154.459 226.044 151.57C233.292 146.329 240.052 140.404 246.944 134.682C247.54 134.185 248 132.988 247.865 132.232C246.806 126.231 245.647 120.247 244.399 114.283C242.394 104.702 239.593 95.3682 235.182 86.5872C234.036 84.3053 232.646 82.1422 231.463 80.0868C229.557 81.0667 227.973 81.7805 226.489 82.6621C221.257 85.7752 216.125 89.0589 210.829 92.0573C206.971 94.2423 203.066 96.5105 198.909 97.9613C193.301 99.9184 187.507 101.597 181.653 102.521C176.083 103.4 170.332 103.399 164.667 103.328C159.811 103.266 154.936 102.748 150.117 102.092C142.902 101.11 135.642 100.186 128.571 98.5195C125.251 97.7361 122.4 95.1171 119.205 93.6049C111.46 89.9378 106.268 80.3953 107.845 71.0684C108.239 68.7401 108.726 66.3735 109.649 64.1885M33.6007 158.095C32.7777 153.478 31.413 148.899 31.1427 144.256C30.8097 138.505 30.9967 132.662 31.6272 126.933C32.3383 120.476 33.149 113.899 35.0815 107.741C37.6036 99.7068 40.9869 91.9003 44.5517 84.2521C46.7394 79.5559 49.7747 75.2105 52.7663 70.9442C56.4539 65.6857 60.439 60.6319 64.4255 55.5932C65.153 54.6747 66.4468 54.1206 67.5782 53.6238C71.8581 51.7404 76.2172 50.0358 80.4685 48.0924C82.7286 47.0592 84.6938 45.1581 87.0276 44.5562C91.7183 43.347 95.1071 39.9911 99.2396 38.0135C104.181 35.6524 109.605 34.2918 114.829 32.5271C117.111 31.7574 119.391 30.9549 121.72 30.3639C124.021 29.7771 126.375 29.3827 128.726 29.0305C129.211 28.9568 129.404 28.8408 130.07 28.7439C130.354 28.703 130.643 28.789 130.926 28.7426C133.444 28.3359 132.109 28.8122 135.117 28.3331C140.056 28.3331 144.77 28.4109 149.481 28.3168C158.302 28.1366 166.963 29.5382 175.52 31.3275C178.904 32.0358 181.944 34.3109 185.204 35.7289C189.716 37.6955 194.366 39.3646 198.804 41.4841C201.018 42.5418 202.963 44.226 204.906 45.7791C215.899 54.571 226.62 63.7846 233.933 75.9379C238.222 83.0593 241.486 90.9245 244.243 98.7938C247.222 107.294 249.224 116.152 251.334 124.931C252.082 128.052 252.179 131.407 252.085 134.64C251.767 145.636 251.18 156.622 248.35 167.336C247.579 170.248 246.522 173.087 245.795 176.007C245.2 178.408 245.084 180.934 244.423 183.313C243.132 187.982 240.71 192.113 237.991 196.113C235.29 200.09 232.892 204.272 230.236 208.282C229.301 209.693 228.072 210.94 226.843 212.125C223.195 215.642 218.891 218.659 215.947 222.68C212.605 227.241 207.67 229.459 203.734 233.039C198.504 237.796 192.229 240.946 186.348 244.684C183.849 246.274 180.732 246.86 178.113 248.295C172.558 251.339 166.268 251.803 160.331 253.226C154.347 254.662 147.938 254.467 141.703 254.672C138.204 254.788 134.686 254.498 131.179 254.239C130.516 254.19 129.854 254.081 129.231 253.853C127.795 253.33 126.859 253.577 124.353 252.99C123.892 252.882 122.696 252.342 122.24 252.208C119.202 251.317 117.791 251.424 116.971 251.003C111.191 249.443 105.483 247.556 99.6354 246.329C90.389 244.385 84.1902 237.899 77.4701 232.171C73.706 228.963 69.9597 225.682 66.5983 222.067C60.9549 216.001 55.5408 209.715 50.2332 203.348C49.0855 201.971 48.893 199.831 48.1015 198.115C46.0543 193.673 43.6223 189.385 41.8904 184.827C39.4419 178.386 37.4876 171.759 35.3176 165.213" fill="black" fill-opacity="0.47"/>
</g>
</svg>
