<svg width="62" height="62" viewBox="0 0 62 62" fill="none" xmlns="http://www.w3.org/2000/svg">
<path d="M54.25 47.7917C54.25 51.3592 51.3592 54.25 47.7917 54.25H14.2083C10.642 54.25 7.75 51.3592 7.75 47.7917V14.2083C7.75 10.6407 10.642 7.75 14.2083 7.75H47.7917C51.3592 7.75 54.25 10.6407 54.25 14.2083V47.7917Z" fill="url(#paint0_linear_50_2)"/>
<path d="M15.5 24.5417H21.9583V46.5H15.5V24.5417ZM18.7098 21.9583H18.6736C16.7465 21.9583 15.5 20.522 15.5 18.7279C15.5 16.895 16.7852 15.5 18.7472 15.5C20.7119 15.5 21.9222 16.895 21.9583 18.7279C21.9583 20.5207 20.7119 21.9583 18.7098 21.9583ZM46.5 46.5H40.0417V34.7471C40.0417 31.908 38.4594 29.9705 35.9187 29.9705C33.9799 29.9705 32.931 31.2777 32.4221 32.541C32.2361 32.993 32.2917 34.2434 32.2917 34.875V46.5H25.8333V24.5417H32.2917V27.9207C33.223 26.4792 34.6813 24.5417 38.4116 24.5417C43.0332 24.5417 46.4987 27.4479 46.4987 33.9372L46.5 46.5Z" fill="#151531"/>
<defs>
<linearGradient id="paint0_linear_50_2" x1="31" y1="7.75" x2="31" y2="54.25" gradientUnits="userSpaceOnUse">
<stop stop-color="#C051FF"/>
<stop offset="1" stop-color="#421A92"/>
</linearGradient>
</defs>
</svg>
