<svg width="115" height="115" viewBox="0 0 115 115" fill="none" xmlns="http://www.w3.org/2000/svg">
<path d="M102.078 55.2877C101.516 56.1928 100.606 56.8633 99.7953 57.5316C99.5042 57.7734 99.2102 58.0191 98.9124 58.2631C98.7993 60.6651 98.4316 63.1053 97.8038 65.6131C97.8038 65.6159 97.8038 65.6159 97.8038 65.6159C97.9053 65.8483 97.9957 66.0829 98.0772 66.3202C98.4543 67.4128 98.6462 68.5774 98.6412 69.7332C98.639 70.7697 98.4832 71.8168 98.1626 72.8034C97.7927 73.9525 97.2098 75.0157 96.6048 76.0544C95.2704 78.3432 93.9022 80.6143 92.5474 82.8942C91.8813 84.0139 91.2086 85.1336 90.5359 86.2511C90.0074 87.1296 89.4095 88.0458 88.4451 88.4906C87.3997 88.9736 86.2323 88.8926 85.1148 88.8294C84.7831 88.8111 84.4509 88.7978 84.117 88.7817C84.1148 88.7817 84.1148 88.7817 84.1126 88.7817C80.9154 91.4299 77.1652 93.6538 72.916 95.4146C67.9263 97.4844 62.5706 98.5431 56.9986 98.5614H56.9959C56.9127 98.6989 56.8201 98.832 56.723 98.9607C56.3481 99.4532 55.9078 99.8885 55.4225 100.275C54.3948 101.094 53.2324 101.701 52.0517 102.264C50.8211 102.851 49.5205 103.462 48.123 103.162C47.4364 103.015 46.7997 102.679 46.1747 102.37C45.4654 102.022 44.7588 101.67 44.0501 101.32C41.2549 99.934 38.457 98.5497 35.6596 97.1638C34.4224 96.5499 33.1512 95.9786 31.9639 95.2654C31.0044 94.6898 30.0716 93.9766 29.4959 92.9966C28.9247 92.0239 28.8753 90.9197 28.902 89.8227C28.9042 89.7506 28.9069 89.6779 28.9092 89.6081C28.9158 89.4273 28.9225 89.247 28.9247 89.0662C28.9336 88.7956 28.9386 88.5222 28.9291 88.2515C28.2608 87.6825 27.6242 87.0935 27.0169 86.4863C25.24 84.7094 23.6189 82.6463 22.1354 80.2665C22.0633 80.2421 21.989 80.2149 21.9163 80.19C21.248 79.9576 20.5842 79.7158 19.9253 79.4585C18.9204 79.0703 17.9155 78.6366 17.0354 78.0093C16.2606 77.4586 15.5768 76.761 15.1747 75.8897C14.7161 74.8959 14.6101 73.8033 14.5874 72.7224C14.563 71.5528 14.5697 70.3881 14.4637 69.2229C14.3484 67.9884 14.1498 66.7622 13.872 65.5549C13.5986 64.3742 13.2126 63.2361 12.8377 62.0848C12.506 61.0693 12.2981 59.9424 12.8515 58.963C13.3141 58.1389 14.1204 57.6309 14.8425 57.0508V57.0486C14.8403 56.9155 14.8403 56.7824 14.8403 56.6487C14.8403 52.5065 15.518 48.3187 16.8612 44.1582C16.6128 43.8626 16.3737 43.5598 16.1547 43.242C15.8092 42.7407 15.5291 42.1783 15.4431 41.571C15.3461 40.8961 15.4953 40.23 15.7121 39.5939C16.1342 38.3522 16.6289 37.1332 17.0892 35.9048C17.5118 34.7762 17.8795 33.5932 18.489 32.5478C19.074 31.5457 19.9636 30.8186 20.7495 29.9834C21.3994 29.2907 21.8986 28.4843 22.3794 27.6674C23.2579 26.1706 24.1497 24.4957 25.7707 23.6855C26.8045 23.168 27.9697 23.1098 29.1055 23.1996C29.8054 23.2562 30.4942 23.3422 31.178 23.4592C34.068 21.2564 37.2946 19.4118 40.8234 17.9488C42.1373 17.4047 43.4766 16.9283 44.8354 16.5246C45.0522 16.1519 45.2286 15.757 45.375 15.3483C45.7793 14.2447 46.1043 13.0706 47.1181 12.3596C48.1818 11.6142 49.5433 11.5943 50.7894 11.576C52.3473 11.551 53.9074 11.6165 55.4585 11.7479C56.2488 11.8133 57.0369 11.8987 57.825 12.0052C58.2221 12.059 58.6169 12.1178 59.0124 12.1971C59.1139 12.2171 59.2248 12.2376 59.3329 12.2648C60.0034 12.1699 60.71 12.181 61.3832 12.2082C62.1619 12.2398 62.9411 12.2825 63.7175 12.328C64.9415 12.3957 66.1766 12.4295 67.3911 12.5964C68.3617 12.7317 69.3555 12.9869 70.1436 13.5986C71.0692 14.3168 71.3376 15.3982 71.7691 16.4298C71.9676 16.9017 72.1956 17.3598 72.4484 17.8068C72.591 17.8634 72.733 17.9216 72.8755 17.9804C78.1857 20.1816 82.7849 23.2046 86.5462 26.9653C88.0363 28.4555 89.4001 30.0289 90.6329 31.6832C90.6352 31.6832 90.6352 31.6854 90.6352 31.6854C90.8925 32.031 91.1454 32.3765 91.3894 32.7286L91.3916 32.7309C92.2113 33.9027 92.9655 35.1056 93.656 36.3496C93.8213 36.4289 93.9904 36.4987 94.169 36.562C94.9976 36.8576 95.86 37.045 96.6885 37.3451C97.3973 37.6024 98.095 37.9346 98.639 38.4692C99.3439 39.1647 99.594 40.1041 99.8131 41.0408C100.38 43.4921 100.933 45.9462 101.484 48.4003C101.757 49.6193 102.033 50.836 102.306 52.0528C102.55 53.1542 102.703 54.2784 102.078 55.2877Z" fill="#C051FF"/>
<path d="M102.306 52.0528C102.033 50.836 101.757 49.6193 101.484 48.4003C100.933 45.9462 100.38 43.4921 99.8131 41.0408C99.594 40.1036 99.3439 39.1647 98.639 38.4692C98.095 37.9346 97.3973 37.6024 96.6885 37.3451C95.86 37.045 94.9976 36.8576 94.1685 36.562C93.9904 36.4987 93.8213 36.4289 93.656 36.3496C92.9655 35.1056 92.2113 33.9027 91.3916 32.7309L91.3894 32.7286C91.1454 32.3765 90.8925 32.031 90.6352 31.6854C90.6352 31.6854 90.6352 31.6832 90.6329 31.6832C89.4001 30.0289 88.0363 28.4555 86.5462 26.9653C82.7849 23.2046 78.1857 20.1816 72.8755 17.9804C72.733 17.9216 72.591 17.8634 72.4484 17.8068C72.1956 17.3598 71.9676 16.9017 71.7691 16.4298C71.3376 15.3982 71.0692 14.3168 70.1436 13.5986C69.3555 12.9869 68.3617 12.7317 67.3911 12.5964C66.1766 12.4295 64.9415 12.3957 63.7175 12.328C62.9411 12.2825 62.1619 12.2398 61.3832 12.2082C60.71 12.181 60.0034 12.1699 59.3329 12.2648C59.2248 12.2376 59.1139 12.2171 59.0124 12.1971C58.6169 12.1178 58.2221 12.059 57.825 12.0052C57.0369 11.8987 56.2488 11.8133 55.4585 11.7479C53.9074 11.6165 52.3473 11.551 50.7894 11.576C49.5433 11.5943 48.1818 11.6142 47.1181 12.3596C46.1043 13.0706 45.7793 14.2447 45.375 15.3483C45.2286 15.757 45.0522 16.1519 44.8354 16.5246C43.4766 16.9283 42.1373 17.4047 40.8234 17.9488C37.2946 19.4118 34.068 21.2564 31.178 23.4592C30.4942 23.3422 29.8054 23.2562 29.1055 23.1996C27.9697 23.1098 26.8045 23.168 25.7707 23.6855C24.1497 24.4957 23.2579 26.1706 22.3794 27.6674C21.8986 28.4843 21.3994 29.2907 20.7495 29.9834C19.9636 30.8186 19.074 31.5457 18.489 32.5478C17.8795 33.5932 17.5118 34.7762 17.0892 35.9048C16.6289 37.1332 16.1342 38.3522 15.7121 39.5939C15.4953 40.23 15.3461 40.8961 15.4431 41.571C15.5291 42.1783 15.8092 42.7407 16.1547 43.242C16.3737 43.5598 16.6128 43.8626 16.8612 44.1582C15.518 48.3187 14.8403 52.5065 14.8403 56.6487C14.8403 56.7824 14.8403 56.9155 14.8425 57.0486V57.0508C14.1204 57.6309 13.3141 58.1389 12.8515 58.963C12.2981 59.9424 12.506 61.0688 12.8377 62.0848C13.2126 63.2361 13.5986 64.3742 13.872 65.5549C14.1498 66.7622 14.3484 67.9884 14.4637 69.2229C14.5697 70.3881 14.563 71.5528 14.5874 72.7224C14.6101 73.8033 14.7161 74.8959 15.1747 75.8897C15.5768 76.761 16.2606 77.4586 17.0354 78.0093C17.9155 78.6366 18.9204 79.0703 19.9253 79.4585C20.5842 79.7158 21.248 79.9576 21.9163 80.19C21.989 80.2149 22.0633 80.2421 22.1354 80.2665C23.6189 82.6463 25.24 84.7094 27.0169 86.4863C27.6242 87.0935 28.2608 87.6825 28.9291 88.2515C28.9386 88.5222 28.9336 88.7956 28.9247 89.0662C28.9225 89.247 28.9158 89.4273 28.9092 89.6081C28.9069 89.6779 28.9042 89.7506 28.902 89.8227C28.8753 90.9197 28.9247 92.0239 29.4959 92.9966C30.0716 93.9766 31.0044 94.6898 31.9639 95.2654C33.1512 95.9786 34.4224 96.5499 35.6596 97.1638C38.457 98.5497 41.2549 99.934 44.0501 101.32C44.7588 101.67 45.4654 102.022 46.1747 102.37C46.7997 102.679 47.4364 103.015 48.123 103.162C49.5205 103.462 50.8211 102.851 52.0517 102.264C53.2324 101.701 54.3954 101.094 55.4225 100.275C55.9078 99.8885 56.3481 99.4532 56.723 98.9607C56.8201 98.832 56.9127 98.6989 56.9959 98.5614H56.9986C62.5706 98.5431 67.9263 97.4844 72.916 95.4146C77.1652 93.6538 80.9154 91.4299 84.1126 88.7817C84.1148 88.7817 84.1148 88.7817 84.117 88.7817C84.4509 88.7978 84.7831 88.8111 85.1148 88.8294C86.2323 88.8926 87.3997 88.9736 88.4451 88.4906C89.4095 88.0458 90.0074 87.1296 90.5359 86.2511C91.2086 85.1336 91.8813 84.0139 92.5474 82.8942C93.9022 80.6143 95.2704 78.3432 96.6048 76.0544C97.2098 75.0157 97.7927 73.9525 98.1626 72.8034C98.4832 71.8168 98.639 70.7697 98.6412 69.7332C98.6462 68.5774 98.4543 67.4128 98.0772 66.3202C97.9957 66.0829 97.9053 65.8483 97.8038 65.6159C97.8038 65.6159 97.8038 65.6159 97.8038 65.6131C98.4316 63.1053 98.7993 60.6651 98.9124 58.2631C99.2102 58.0191 99.5042 57.7734 99.7953 57.5316C100.606 56.8633 101.516 56.1928 102.078 55.2877C102.703 54.2784 102.55 53.1542 102.306 52.0528ZM29.4416 88.4928C29.4394 88.4273 29.4371 88.3619 29.4327 88.2987C29.4305 88.2493 29.426 88.1994 29.4216 88.15C29.4172 88.0685 29.4077 87.9898 29.3989 87.9082C29.3173 87.1928 29.1077 86.5062 28.5814 86.0054C28.4688 85.8967 28.288 86.0321 28.3646 86.1724C28.5908 86.5717 28.7511 86.9848 28.8387 87.4252C28.3468 86.9893 27.8726 86.5445 27.4145 86.0864C25.8112 84.4836 24.3393 82.6463 22.98 80.5466C23.2867 80.6414 23.5446 80.6708 23.8696 80.6187C23.98 80.6032 24.0049 80.4495 23.9328 80.3819C23.5219 79.9776 22.9639 79.8583 22.4315 79.6753C22.4221 79.6731 22.4132 79.6687 22.4044 79.6665C22.1332 79.5738 21.8647 79.4768 21.5958 79.3797C21.2957 79.271 20.9952 79.1584 20.6951 79.0453C19.7784 78.6976 18.8639 78.3343 18.0148 77.8374C17.2273 77.3771 16.4958 76.7926 16.0099 76.0089C15.4614 75.1244 15.3123 74.0856 15.2718 73.0629C15.2241 71.941 15.2535 70.8235 15.1681 69.7038C15.0799 68.5524 14.9218 67.4033 14.6961 66.2725C14.466 65.1145 14.1609 63.9743 13.7838 62.8568C13.4383 61.8275 12.8626 60.6334 13.2625 59.5409C13.547 58.7711 14.2081 58.2742 14.8586 57.7684C14.9784 57.6786 15.0954 57.586 15.2085 57.4933C15.2718 57.4412 15.3328 57.3919 15.3916 57.3397C15.3982 57.3353 15.4049 57.3286 15.4115 57.3236C15.9084 56.8927 16.3194 56.4052 16.4436 55.7142C16.4775 55.5245 16.1952 55.3621 16.1025 55.5722C15.9312 55.9538 15.6872 56.2699 15.4049 56.5517C15.4165 52.6102 16.0482 48.6282 17.2927 44.664C17.3265 44.7045 17.3626 44.745 17.3964 44.786C17.8567 45.3206 18.2948 45.8941 18.8955 46.2734C19.0469 46.3705 19.2005 46.1852 19.1256 46.0433C18.8505 45.4992 18.4279 45.0705 18.0331 44.6096C17.8567 44.4044 17.6831 44.2009 17.509 43.9935C17.367 43.8243 17.225 43.6502 17.0869 43.4766C17.0354 43.4112 16.9832 43.3435 16.9311 43.2758C16.6244 42.8693 16.3238 42.429 16.1702 41.9415C15.9922 41.3703 16.046 40.7946 16.204 40.2256C16.5296 39.0471 17.0465 37.9052 17.4802 36.7627C17.9044 35.6497 18.2771 34.4983 18.8006 33.4285C19.2887 32.4286 20.0108 31.6854 20.79 30.909C21.4693 30.2296 22.0428 29.4937 22.5397 28.674C23.3976 27.2587 24.0953 25.5678 25.4591 24.5523C26.4163 23.8385 27.5903 23.6877 28.7533 23.7393C29.3695 23.7664 29.9812 23.8457 30.5935 23.9134C30.6273 23.9178 30.6611 23.9201 30.6949 23.9245C30.939 23.9517 31.1802 23.9694 31.422 23.9833C31.8668 24.006 32.3116 24.0082 32.763 24.006C32.8828 24.006 32.9122 23.823 32.7924 23.7936C32.5057 23.7237 32.219 23.6583 31.93 23.5995C34.6752 21.5631 37.7233 19.8455 41.0403 18.4707C42.1151 18.0236 43.2054 17.626 44.3118 17.2761C44.0972 17.5406 43.8582 17.7863 43.6075 18.0187C43.3502 18.2605 43.0584 18.4684 42.8172 18.7258C42.7268 18.8228 42.8172 18.9831 42.9481 18.9493C43.5104 18.8067 44.0362 18.3686 44.4294 17.956C44.7023 17.6665 44.9529 17.3509 45.1698 17.0143C45.2896 16.8291 45.3999 16.6372 45.497 16.4386C45.5175 16.3981 45.5353 16.3599 45.5536 16.3188C46.0189 15.3056 46.1675 14.075 46.9262 13.2242C47.7664 12.2803 49.1728 12.2309 50.3447 12.2215C51.8665 12.2126 53.386 12.2531 54.9034 12.3502C55.7541 12.4045 56.6032 12.4811 57.4523 12.5692C57.8926 12.6169 58.3352 12.6707 58.775 12.7118C59.1543 12.7456 59.6019 12.8199 59.9718 12.714C60.3334 12.7634 60.6967 12.7927 61.0488 12.8177C61.7171 12.8604 62.3854 12.8854 63.0515 12.9214C64.291 12.9891 65.5349 13.0434 66.7722 13.1538C67.7161 13.2397 68.7072 13.3845 69.5313 13.8853C70.5157 14.4837 70.7958 15.5313 71.2156 16.5312C71.3559 16.8651 71.5095 17.1907 71.6787 17.5062C71.8234 17.7774 71.9787 18.0414 72.1484 18.2943C72.505 18.8273 72.9204 19.3236 73.4035 19.7662C73.4961 19.8499 73.6608 19.7412 73.5842 19.6286C73.3585 19.2942 73.1372 18.9581 72.9248 18.6126C78.0548 20.7755 82.5004 23.7193 86.1468 27.3646C88.0569 29.2746 89.7595 31.3244 91.238 33.4984C91.4365 34.1168 91.6262 34.7357 91.8026 35.3607C91.7981 35.3812 91.8026 35.404 91.8114 35.4262C91.8209 35.4467 91.8297 35.4672 91.8386 35.4872C92.2767 37.0406 92.6444 38.6117 92.9112 40.2034C93.478 43.5986 93.5861 47.102 93.0509 50.5088C92.7847 52.2014 92.3533 53.863 91.7643 55.4708C91.4548 56.3126 91.1115 57.1478 90.8814 58.0147C90.6601 58.8454 90.5697 59.6945 90.5924 60.5519C90.6374 62.2473 91.0505 63.9249 90.9674 65.6248C90.9019 66.9586 90.4183 68.1731 89.5132 69.1509C87.9487 70.8418 85.7176 71.7291 83.7943 72.9254C82.8504 73.5122 81.9247 74.1827 81.211 75.045C80.8588 75.4693 80.5566 75.9302 80.3331 76.4332C80.0574 77.0521 79.8994 77.7087 79.7053 78.3521C79.5178 78.9799 79.2877 79.6343 78.7952 80.0929C78.2445 80.6098 77.4381 80.7024 76.858 81.1788C75.6928 82.1288 76.0139 83.8153 75.9435 85.1314C75.781 88.0774 74.0268 90.8836 71.4369 92.3034C69.8885 93.1524 68.1115 93.5135 66.3729 93.7325C64.6747 93.945 62.9588 93.9988 61.2518 93.9017C57.82 93.7098 54.4065 92.9084 51.2547 91.5358C50.4689 91.1953 49.6941 90.8248 48.9244 90.4499C48.8456 90.4117 48.7707 90.4139 48.7097 90.4411C47.8496 89.7118 46.5152 89.8316 45.472 90.161C44.6795 90.4117 43.9258 90.7638 43.1289 91.0012C42.3386 91.2358 41.5256 91.3827 40.7059 91.4526C39.0532 91.5946 37.3894 91.4593 35.7545 91.213C34.3003 90.994 32.8262 90.7366 31.4242 90.2874C30.7377 90.0661 30.0672 89.7933 29.4488 89.4228C29.451 89.1882 29.4532 88.9376 29.4466 88.6869C29.4466 88.6237 29.4438 88.5582 29.4416 88.4928ZM44.0656 32.5573C43.7045 34.2504 44.4449 35.8937 45.1925 37.3722C45.3728 37.7288 45.5536 38.1037 45.7859 38.4354C45.9534 38.675 46.1497 38.894 46.391 39.0632C46.3954 39.0654 46.4004 39.0698 46.4048 39.072C47.0299 39.5057 47.8091 39.4808 48.5112 39.2639C49.2516 39.036 49.9426 38.6345 50.602 38.2346C51.2658 37.8303 51.8981 37.3767 52.5009 36.8892C53.817 35.8238 55.0681 34.5754 55.9871 33.144C56.6282 32.1441 57.1722 30.8552 57.0524 29.6385C57.0391 29.4826 57.0142 29.329 56.9781 29.1776C56.9443 29.004 56.9082 28.8276 56.8672 28.6496C56.3525 26.3558 55.2328 23.7393 52.6501 23.4076C51.2792 23.2313 49.891 23.7576 48.8096 24.5789C47.5811 25.5095 46.7431 26.8411 46.0482 28.1932C45.6983 28.8709 45.3794 29.5636 45.0455 30.2502C44.6795 30.995 44.2419 31.7354 44.0656 32.5573ZM55.7586 32.5772C55.0138 33.7718 54.0316 34.8438 52.9906 35.7855C51.9363 36.7356 50.749 37.5464 49.4978 38.2119C48.8927 38.5302 48.2311 38.853 47.5312 38.8441C46.9328 38.8375 46.5246 38.5147 46.2085 38.0699C46.1248 37.4942 46.091 36.9097 46.1087 36.3113C46.1337 35.4988 46.1769 34.607 46.4636 33.8395C46.7592 33.0448 47.4636 32.4486 47.9061 31.7376C48.7596 30.3605 49.2272 28.735 50.3763 27.5543C50.8865 27.0285 51.5187 26.5926 52.2502 26.4551C53.0655 26.3015 53.8486 26.6154 54.5169 27.0646C55.2461 27.5565 55.9239 28.1865 56.4879 28.857C56.5084 28.8798 56.5289 28.9047 56.5467 28.9291C56.9105 30.2113 56.4518 31.4625 55.7586 32.5772ZM42.1733 34.2527C42.2255 35.1894 42.3519 36.1355 42.5821 37.045C42.7041 37.5281 42.8643 37.9978 43.0701 38.4515C43.1716 38.6727 43.2819 38.8918 43.4134 39.097C43.4833 39.2074 43.5554 39.3161 43.6369 39.4176C43.7267 39.5307 43.8354 39.5712 43.9436 39.666C44.0384 39.747 44.1765 39.6455 44.1177 39.5307C44.0678 39.4309 44.0567 39.3227 44.009 39.2235C43.9641 39.1286 43.8987 39.0382 43.8465 38.9478C43.7428 38.7631 43.6435 38.5735 43.5554 38.3794C43.3723 37.9795 43.237 37.5597 43.1267 37.1354C42.896 36.2503 42.7695 35.3247 42.6996 34.4129C42.6275 33.469 42.6974 32.5528 43.0657 31.6721C43.3862 30.9001 43.8487 30.198 44.2913 29.4915C44.7882 28.7034 45.2147 27.8998 45.472 27.0058C45.5131 26.8594 45.3051 26.8117 45.2507 26.9448C44.5985 28.5659 43.2958 29.837 42.6159 31.4486C42.2393 32.3449 42.1217 33.286 42.1733 34.2527ZM41.4623 38.1581C41.4984 38.2213 41.5866 38.1758 41.5755 38.1104C41.4396 37.3589 41.413 36.5891 41.3448 35.8282C41.2727 35.0357 41.2094 34.2432 41.2411 33.4468C41.2704 32.7286 41.3786 32.011 41.616 31.3288C41.7313 30.9994 41.8777 30.6789 42.0563 30.3766C42.1938 30.137 42.429 29.9002 42.4628 29.6179C42.4695 29.5614 42.4062 29.5298 42.3586 29.5386C42.0674 29.6018 41.8644 29.9407 41.7086 30.1753C41.5122 30.4737 41.3564 30.7942 41.2255 31.1259C40.9499 31.8324 40.819 32.5844 40.7713 33.3359C40.7175 34.2027 40.7669 35.0762 40.8506 35.9386C40.9249 36.72 41.0558 37.4737 41.4623 38.1581ZM56.4768 34.607C55.5351 35.6025 54.4448 36.4377 53.406 37.3251C53.3522 37.37 53.4104 37.4759 53.4787 37.4465C54.1037 37.187 54.6527 36.8642 55.1968 36.4605C55.7137 36.0723 56.1989 35.643 56.6576 35.1849C57.5898 34.2571 58.4323 33.1845 59.0778 32.0376C59.4122 31.442 59.694 30.8009 59.7799 30.1193C59.8659 29.4394 59.7056 28.8165 59.3895 28.2159C59.0529 27.5726 58.6896 26.9587 58.3962 26.2904C58.1023 25.6177 57.8339 24.9289 57.4884 24.2789C56.8944 23.1658 55.9283 21.8975 54.5734 21.7755C54.4786 21.7666 54.4492 21.9063 54.5263 21.949C55.5401 22.5225 56.3209 23.2923 56.8855 24.3127C57.5355 25.4868 57.9126 26.7867 58.5787 27.9542C58.9014 28.521 59.2492 29.0628 59.2586 29.7399C59.2675 30.3921 59.0279 31.0332 58.7234 31.6C58.1317 32.7037 57.3325 33.6992 56.4768 34.607ZM55.4181 20.7866C55.768 20.8903 56.0997 21.0462 56.398 21.2586C56.9554 21.6557 57.373 22.2247 57.7096 22.8137C58.0551 23.4165 58.3236 24.0554 58.6242 24.681C58.9785 25.4213 59.3396 26.1456 59.7417 26.8616C59.7844 26.9359 59.913 26.8866 59.8836 26.8006C59.5925 25.9809 59.263 25.184 58.9175 24.3826C58.6175 23.6877 58.3125 22.9811 57.9148 22.3328C57.556 21.7505 57.109 21.2203 56.5311 20.8432C56.2239 20.6446 55.8784 20.4888 55.5262 20.3962C55.3432 20.3463 55.1469 20.3102 54.9572 20.2991C54.7381 20.2875 54.6278 20.3712 54.4292 20.4478C54.4131 20.4528 54.4109 20.4749 54.4292 20.4816C54.6211 20.5448 54.7498 20.6397 54.955 20.6785C55.1108 20.7079 55.2644 20.7389 55.4181 20.7866ZM27.1977 58.7079C27.2177 58.7168 27.2404 58.7256 27.2609 58.7301C27.4367 58.7983 27.6153 58.8116 27.7889 58.7889C27.9946 58.7617 28.1954 58.6852 28.3895 58.5792C29.2181 58.1278 29.9973 57.5383 30.6567 56.8655C32.0043 55.4863 32.8307 53.5674 32.5983 51.6419V51.633C32.58 51.364 32.5262 51.1067 32.4447 50.8588C32.3587 50.5942 32.2395 50.3391 32.0947 50.0957V50.0934C31.93 49.8111 31.7359 49.5422 31.5279 49.2871C31.2301 48.9238 30.8979 48.5988 30.5524 48.2827C30.2141 47.9732 29.8664 47.6416 29.4011 47.5445C28.4688 47.346 27.7057 48.0753 27.2881 48.8245C26.7867 49.723 26.4662 50.7567 26.2355 51.755C25.9942 52.7998 25.87 53.8746 25.8611 54.9444C25.8517 55.9039 25.9244 57.0258 26.3802 57.8904C26.561 58.2315 26.8405 58.5521 27.1977 58.7079ZM32.1807 50.9214C32.1557 50.9531 32.1469 50.9985 32.1557 51.0479C32.5013 52.7505 31.9234 54.5063 30.8574 55.8495C30.3539 56.4862 29.751 57.0463 29.0916 57.5155C28.76 57.7529 28.41 57.9941 28.0418 58.1727C27.8932 58.2448 27.7528 58.2764 27.622 58.2698C27.6014 58.1932 27.5815 58.1162 27.5632 58.0396C27.297 56.906 27.3558 55.7009 27.5837 54.5651C27.7983 53.5042 28.0873 52.3778 28.5725 51.4023C29.0334 50.4794 29.8503 49.8017 30.939 50.003C31.3 50.0707 31.6139 50.206 31.894 50.3913C31.9999 50.5604 32.097 50.739 32.1807 50.9214ZM25.2039 52.6285C25.2084 52.5786 25.1296 52.5586 25.1091 52.6035C24.7797 53.3123 24.6505 54.1298 24.5423 54.8995C24.427 55.7142 24.3865 56.5383 24.4247 57.3602C24.4586 58.1006 24.5018 58.8926 24.7908 59.5836C24.9849 60.0467 25.4679 60.7438 26.0575 60.6784C26.1406 60.6695 26.1861 60.5791 26.1251 60.5136C25.9488 60.3195 25.7208 60.1798 25.5517 59.974C25.3393 59.7234 25.1973 59.4278 25.1069 59.1139C24.9056 58.4323 24.8834 57.6919 24.8606 56.9853C24.8335 56.2721 24.8607 55.5539 24.9172 54.843C24.976 54.1004 25.1452 53.3711 25.2039 52.6285ZM25.9061 63.1008C26.1456 63.0942 26.3192 63.006 26.5405 62.9245C26.6692 62.8751 26.6193 62.6987 26.4839 62.7193C26.1545 62.7692 25.723 62.6649 25.4114 62.5501C25.0731 62.4259 24.7636 62.2296 24.504 61.9767C23.9395 61.4282 23.6616 60.6761 23.5307 59.9152C23.3843 59.0667 23.4021 58.1816 23.4226 57.3236C23.4426 56.4185 23.5108 55.5135 23.6056 54.6128C23.7182 53.5652 23.8851 52.5248 24.0343 51.4816C24.0476 51.3912 23.9306 51.3551 23.899 51.4433C23.2013 53.3483 22.9346 55.412 22.8763 57.4323C22.8264 59.1028 22.8037 61.2158 24.1924 62.4076C24.5063 62.6788 24.879 62.9111 25.2827 63.0221C25.4818 63.0781 25.6981 63.1075 25.9061 63.1008ZM31.7897 46.7498C31.036 46.1154 30.2097 45.3999 29.2475 45.111C28.4439 44.8692 27.3286 45.0295 27.0574 45.9529C27.0463 45.9939 27.0984 46.0227 27.13 45.9939C28.5115 44.6163 30.3677 46.2218 31.4603 47.1497C32.1624 47.7453 32.8262 48.3886 33.4402 49.0752C33.7341 49.4024 34.0364 49.7341 34.2665 50.109C34.5194 50.5221 34.5965 50.9486 34.5421 51.4317C34.4296 52.4638 34.0569 53.4886 33.7385 54.4725C33.7158 54.5429 33.8106 54.5695 33.8489 54.5202C34.4834 53.66 34.8355 52.6534 35.0074 51.6014C35.0884 51.0911 35.0729 50.6081 34.856 50.1339C34.6575 49.7024 34.3414 49.3348 34.0364 48.9782C33.3503 48.1768 32.5983 47.427 31.7897 46.7498ZM32.4086 45.1337C31.9705 44.8082 31.5191 44.4971 31.0449 44.2214C30.5524 43.9325 30.0605 43.7228 29.5164 43.5509C29.4371 43.526 29.3989 43.6369 29.4621 43.6796C29.9024 43.9846 30.3383 44.2802 30.7942 44.5647C31.2573 44.8537 31.7176 45.1515 32.1602 45.472C33.0248 46.102 33.7812 46.8785 34.6642 47.4769C34.7113 47.5085 34.7701 47.4453 34.7429 47.3998C34.1833 46.4814 33.2644 45.7704 32.4086 45.1337ZM78.7752 33.0264C79.0886 33.169 79.4141 33.291 79.748 33.3858C80.3691 33.5638 81.0191 33.6432 81.6674 33.6271C81.9902 33.6204 82.3379 33.5528 82.6562 33.6293C82.9768 33.7064 83.1842 33.9476 83.3628 34.2094C83.7604 34.7967 84.1126 35.4195 84.442 36.0473C84.7648 36.6546 85.061 37.273 85.3294 37.9052C85.6094 38.5596 85.9256 39.2617 85.9483 39.9821C85.9799 41.0292 85.2323 41.7968 84.5707 42.5127C84.2163 42.8987 83.8553 43.2869 83.5819 43.7362C83.4576 43.9391 83.3517 44.1582 83.2929 44.3884C83.2297 44.639 83.2791 44.8831 83.3334 45.1287C83.3561 45.2397 83.5253 45.2352 83.5502 45.1287C83.6024 44.9102 83.715 44.7045 83.7987 44.4948C83.8869 44.2736 83.9928 44.0611 84.1215 43.8626C84.3927 43.4428 84.7354 43.079 85.0654 42.7091C85.7087 41.9864 86.377 41.1989 86.4469 40.1918C86.4968 39.4653 86.2212 38.7515 85.9505 38.0904C85.6705 37.4016 85.3632 36.7267 85.0244 36.0651C84.6949 35.4239 84.3361 34.7967 83.9545 34.185C83.6362 33.6748 83.2724 33.1801 82.6313 33.1013C82.2453 33.0536 81.8549 33.1307 81.4683 33.1351C81.0601 33.1418 80.6536 33.1058 80.2515 33.0448C79.8589 32.986 79.4729 32.8911 79.098 32.7647C78.7907 32.661 78.4724 32.4463 78.143 32.494C78.118 32.4985 78.1158 32.5279 78.1225 32.5456C78.2423 32.8124 78.5201 32.9116 78.7752 33.0264ZM82.4122 38.7382C82.7012 39.2978 83.0467 39.844 83.4709 40.3116C83.7943 40.6659 84.381 41.027 84.8169 40.6255C85.1896 40.2799 85.1081 39.6072 85.0765 39.1536C85.0382 38.5957 84.9295 38.0427 84.7493 37.5148C84.5435 36.9186 84.2612 36.3451 83.898 35.8282C83.5686 35.3563 83.1282 34.7401 82.5747 34.5299C82.5453 34.5189 82.5137 34.5233 82.4893 34.5344C82.3895 34.4601 82.2769 34.3991 82.1482 34.3564C81.9469 34.2865 81.6829 34.2454 81.4977 34.3697C81.2587 34.5277 81.2359 34.8621 81.2293 35.1217C81.2132 35.7783 81.4639 36.415 81.6829 37.0245C81.8909 37.6096 82.1255 38.1875 82.4122 38.7382ZM82.4211 41.6526C82.5071 41.5688 82.3806 41.4468 82.2924 41.5217C82.0689 41.7158 81.8521 41.9032 81.6718 42.1378C81.4866 42.3746 81.3352 42.6392 81.2154 42.9143C81.0984 43.1832 81.0102 43.4677 80.9625 43.7589C80.9198 44.0318 80.8838 44.3684 81.0307 44.6141C81.0624 44.6684 81.1478 44.6729 81.1794 44.6141C81.2947 44.3884 81.3036 44.1133 81.3469 43.8648C81.394 43.5892 81.4683 43.323 81.5631 43.0612C81.6558 42.8039 81.78 42.5665 81.9203 42.3342C82.0623 42.0929 82.2226 41.8489 82.4211 41.6526ZM79.5899 43.2914C79.6171 43.3524 79.6986 43.3457 79.7413 43.3097C79.8179 43.2442 79.87 43.1472 79.9199 43.0568C79.9898 43.0024 80.0214 42.912 80.0663 42.8333C80.1162 42.7429 80.1678 42.6569 80.2155 42.5643C80.3125 42.3796 80.4257 42.1988 80.5471 42.0297C80.7801 41.7091 81.0801 41.413 81.3896 41.1717C81.4866 41.0974 81.3829 40.9344 81.2742 40.971C80.8316 41.1196 80.4573 41.3703 80.1434 41.7158C79.9853 41.8894 79.8495 42.079 79.7369 42.2848C79.6781 42.3929 79.6354 42.5011 79.6016 42.6187C79.5699 42.7224 79.5383 42.8216 79.5583 42.9187C79.545 43.0451 79.5383 43.1738 79.5899 43.2914ZM53.3905 60.6223C53.736 63.0442 55.1829 65.0108 56.3908 67.0673C56.9959 68.0944 57.434 69.1692 57.8971 70.2617C58.3374 71.3043 58.8676 72.2776 59.8387 72.9165C60.3151 73.2326 60.8525 73.4512 61.3943 73.6319C61.9861 73.8305 62.6022 74.0385 63.2184 74.1466C63.5933 74.2143 63.9527 74.2143 64.3026 74.1466C64.5394 74.1039 64.774 74.029 65.0092 73.9253C65.0635 73.9026 65.1151 73.8782 65.1672 73.8532C65.7274 73.5892 66.2575 73.257 66.7972 72.9548C69.2989 71.5528 71.7824 70.1192 74.2664 68.6855C75.1826 68.1554 76.0794 67.5863 76.7338 66.7534C76.8064 66.663 76.8741 66.5703 76.9395 66.4755C77.0094 66.3718 77.0771 66.2659 77.1381 66.1572C77.6034 65.3491 77.8357 64.4213 77.9056 63.4957C77.9871 62.4325 77.8424 61.3444 77.5329 60.3262C77.1946 59.2087 76.6617 58.094 75.7788 57.3015C74.9164 56.5317 73.8188 56.1274 72.733 55.7819C71.4053 55.3598 70.0731 54.9467 68.7388 54.5474C68.2624 54.4048 67.7816 54.2739 67.2985 54.1519C65.104 53.1365 62.7853 52.3711 60.4643 51.7073C59.8276 51.5243 59.1682 51.3146 58.4999 51.3346C57.9442 51.3507 57.4068 51.5337 56.9327 51.8204C55.9915 52.3889 55.2533 53.3012 54.691 54.2335C53.5419 56.1363 53.0788 58.4256 53.3905 60.6223ZM75.156 67.3357C74.1283 68.0672 72.9792 68.6473 71.8889 69.2751C70.7192 69.9522 69.5452 70.625 68.3777 71.3088C67.2514 71.9682 66.1427 72.6836 64.9886 73.2981C64.7452 73.4267 64.5056 73.5188 64.2616 73.5754C63.7652 73.3879 63.291 73.1533 62.8507 72.8577C62.2412 72.4512 61.6944 71.9343 61.279 71.3293C60.8209 70.661 60.5702 69.9228 60.4305 69.1281C60.2813 68.2796 60.2269 67.4128 59.9718 66.5842C59.7483 65.8527 59.3961 65.1667 59.0013 64.5117C58.2016 63.1846 57.134 61.9157 56.7141 60.3988C56.5106 59.6557 56.479 58.8249 56.926 58.1616C57.2854 57.6264 57.9015 57.3442 58.5177 57.2316C60.0489 56.9515 61.4642 57.7008 62.8573 58.211C63.6499 58.5021 64.4629 58.7035 65.3114 58.7057C66.2282 58.7079 67.1294 58.5249 68.0367 58.4345C69.599 58.2809 71.1479 58.5521 72.5455 59.2813C73.9159 59.9968 75.0561 61.0982 75.7926 62.4597C76.3095 63.4147 76.6007 64.4485 76.7022 65.5116C76.3544 66.216 75.8464 66.8415 75.156 67.3357ZM55.2778 69.975C55.6416 70.661 55.793 71.4219 55.9799 72.1689C56.296 73.4334 56.9986 75.1854 58.5831 75.0927C58.6985 75.0855 58.7212 74.9275 58.6103 74.8914C57.3192 74.4694 56.7885 73.1217 56.4812 71.9255C56.3032 71.2234 56.1379 70.519 55.8129 69.8663C55.5373 69.3178 55.1696 68.8192 54.7792 68.3472C53.9368 67.3335 52.9684 66.4261 52.3606 65.241C51.7128 63.9787 51.4444 62.5407 51.3967 61.132C51.3673 60.2585 51.4306 59.3895 51.5076 58.5204C51.5842 57.6242 51.7672 56.7075 51.7467 55.8068C51.7467 55.7436 51.6629 55.737 51.643 55.7935C51.3562 56.57 51.2342 57.4279 51.1033 58.2448C50.9725 59.0578 50.8998 59.8836 50.8932 60.7055C50.8798 62.1619 51.0895 63.6316 51.6629 64.977C52.2142 66.2747 53.1398 67.2658 54.0565 68.309C54.5124 68.8259 54.9528 69.3633 55.2778 69.975ZM66.5803 51.3978C65.734 51.0324 64.9121 50.6148 64.063 50.2559C63.1169 49.8539 62.1419 49.5355 61.1259 49.3752C60.1343 49.2172 58.9852 49.0952 58.0169 49.4229C57.9265 49.4545 57.9037 49.6126 58.0169 49.6304C58.8926 49.7679 59.7866 49.7318 60.6673 49.8722C61.5546 50.0119 62.4264 50.2443 63.2616 50.5743C64.8938 51.2198 66.3979 52.1632 68.0955 52.6462C69.7753 53.1226 71.5389 53.1609 73.2454 53.4931C74.7988 53.7931 76.2125 54.3849 77.391 55.4569C78.5739 56.5339 79.5311 57.9941 79.9604 59.5431C79.992 59.6629 80.2022 59.6446 80.1839 59.5115C80.0868 58.7822 79.9177 58.1006 79.6215 57.4257C79.3215 56.7391 78.9105 56.1046 78.4181 55.5428C77.3887 54.3732 76.0317 53.5447 74.5415 53.1071C72.8006 52.5946 70.9721 52.5608 69.1997 52.2131C68.2962 52.0345 67.4272 51.7616 66.5803 51.3978ZM79.9759 62.839C79.7369 63.6765 79.7818 64.5794 79.5788 65.4307C79.3936 66.2004 79.0459 66.9114 78.5584 67.537C77.6372 68.7172 76.3589 69.5574 75.1266 70.3765C74.2753 70.9433 73.4423 71.5256 72.652 72.1734C72.5499 72.2549 72.6792 72.3969 72.7851 72.3453C74.3451 71.5617 75.8852 70.6227 77.2579 69.5368C78.4702 68.5796 79.5333 67.3717 79.9515 65.8549C80.2088 64.9226 80.3397 63.7891 80.1184 62.839C80.1024 62.7642 79.9964 62.7692 79.9759 62.839ZM79.2605 69.142C78.2644 70.0654 77.1991 70.93 76.0794 71.6975C75.5325 72.0719 74.9796 72.4335 74.4106 72.774C74.1305 72.9409 73.8621 73.1173 73.5909 73.2981C73.2975 73.4944 72.9703 73.6408 72.6742 73.8371C72.6154 73.8782 72.652 73.9797 72.7241 73.9569C73.0446 73.8599 73.3424 73.7179 73.6453 73.582C73.9592 73.4445 74.2708 73.3158 74.5709 73.1467C75.1759 72.8056 75.7632 72.4285 76.3228 72.0153C77.4337 71.194 78.4386 70.2706 79.3437 69.2274C79.3936 69.1692 79.3171 69.0898 79.2605 69.142ZM32.1058 82.4133C33.0924 82.7317 34.1789 82.6529 35.1993 82.7272C36.2176 82.8016 37.238 82.9236 38.2496 83.0883C38.3871 83.111 38.5252 83.1338 38.6628 83.1587C38.7532 83.1742 38.8458 83.1925 38.9356 83.2103C40.905 83.5874 43.0407 84.3394 44.9801 83.5198C45.7837 83.1787 46.4747 82.6124 47.0232 81.9369C47.5628 81.2759 48.1524 80.4091 48.2855 79.5489C48.362 79.052 48.1951 78.5917 48.037 78.1313C47.879 77.666 47.7187 77.2035 47.5429 76.7471C47.1974 75.8442 46.7997 74.9546 46.2557 74.151C45.1154 72.4695 43.3951 71.5123 41.6226 70.6183C40.5095 70.0559 39.376 69.4847 38.1997 69.0471C37.7277 68.8708 37.2491 68.7172 36.7616 68.5957C36.405 68.5053 36.0434 68.4332 35.6779 68.3789C33.9304 68.126 32.0653 68.3628 30.589 69.3854C30.5325 69.4243 30.4781 69.4648 30.4238 69.5052C30.32 69.4464 30.1825 69.442 30.0832 69.5346C29.3517 70.2184 28.7644 71.0764 28.2653 71.941C28.0035 72.3969 27.7734 72.8644 27.561 73.3474C27.3713 73.7834 27.1323 74.2348 27.0618 74.709C26.9198 75.6612 27.5748 76.3361 28.1411 77.0066C28.6446 77.6006 28.9746 78.3182 29.2907 79.0204C29.9047 80.3907 30.5574 81.9125 32.1058 82.4133ZM40.0038 70.544C41.6631 71.3404 43.4877 72.124 44.8287 73.4195C46.1475 74.6973 46.818 76.4581 47.4114 78.1557C47.5628 78.5917 47.7863 79.0614 47.6937 79.5328C47.615 79.9482 47.387 80.3414 47.1724 80.7002C46.7526 81.4112 46.2063 82.0684 45.5219 82.5376C44.761 83.0594 43.8987 83.2829 42.9797 83.2669C41.9387 83.2463 40.9227 82.969 39.9089 82.7589C39.5002 82.6729 39.0892 82.5964 38.6783 82.5265C38.6445 82.4522 38.604 82.3817 38.559 82.3141C38.112 81.648 37.3511 81.323 36.8315 80.7274C36.5359 80.3863 36.4499 79.9415 36.2558 79.5444C36.0911 79.2012 35.8338 78.9033 35.5376 78.666C34.9304 78.1763 34.1922 77.9056 33.5078 77.5485C32.7675 77.1603 32.1646 76.6256 31.8308 75.842C31.4897 75.045 31.447 74.1261 31.6683 73.2931C32.1374 71.5278 33.6659 70.1824 35.3302 69.5457C35.7051 69.4015 36.0889 69.2884 36.4816 69.2096C37.7033 69.4986 38.8774 70.0044 40.0038 70.544ZM32.5168 66.4622C32.4918 66.5049 32.5351 66.5637 32.5822 66.5482C33.2599 66.3335 33.8988 66.0989 34.6215 66.1167C35.3824 66.1328 36.1272 66.3563 36.816 66.6674C37.5813 67.0173 38.2989 67.4555 39.0532 67.8326C39.7669 68.187 40.5073 68.4598 41.2749 68.6722C42.7628 69.081 44.359 69.3244 45.655 70.2162C46.8474 71.0359 47.5584 72.3336 48.1185 73.6319C48.4502 74.3973 48.728 75.1737 48.9876 75.964C49.1501 76.4559 49.3198 76.9462 49.4867 77.4359C49.6603 77.9461 49.8705 78.4403 50.0535 78.946C50.0896 79.0497 50.252 79.0093 50.2227 78.8989C50.0962 78.4153 50.0014 77.9278 49.8661 77.447C49.7352 76.9845 49.6087 76.5214 49.4756 76.0611C49.2566 75.2957 49.0281 74.5326 48.7802 73.7767C48.3215 72.3725 47.5628 70.966 46.4137 70.0066C45.147 68.9479 43.5443 68.5957 41.9864 68.2003C41.1667 67.9951 40.3604 67.7605 39.5972 67.3989C38.7914 67.0173 38.0239 66.557 37.2108 66.1916C36.3912 65.8211 35.5288 65.5549 34.6215 65.5638C33.8556 65.5704 32.9394 65.7579 32.5168 66.4622ZM37.9446 64.7125C38.4437 65.0829 38.9495 65.4284 39.4935 65.7285C40.0309 66.0263 40.5861 66.2953 41.1329 66.5726C41.6226 66.8232 42.1151 67.0673 42.632 67.2547C43.176 67.451 43.7384 67.5547 44.3074 67.6518C45.2757 67.8187 46.1564 68.0877 46.9511 68.6833C47.6738 69.2296 48.2627 69.9478 48.7436 70.7109C49.2993 71.5911 49.7374 72.5416 50.1389 73.5011C50.1727 73.582 50.297 73.5532 50.2748 73.4628C49.8594 71.702 48.9992 69.9295 47.6377 68.7016C46.9667 68.0944 46.1697 67.634 45.294 67.3967C44.7067 67.2364 44.0994 67.171 43.5127 67.0151C42.9209 66.8593 42.3702 66.6042 41.8234 66.3313C41.2006 66.0174 40.5889 65.6813 39.9633 65.3696C39.3266 65.0535 38.6738 64.8051 37.9967 64.591C37.9196 64.566 37.888 64.6698 37.9446 64.7125ZM26.4301 77.6749C25.3642 75.9978 25.7142 73.8959 26.5045 72.185C26.9875 71.1418 27.6447 70.1868 28.1998 69.1825C28.2453 69.1037 28.1366 69.0111 28.0712 69.0832C26.6825 70.5639 25.4884 72.4152 25.2378 74.4716C25.1224 75.431 25.2173 76.431 25.6105 77.3205C25.9737 78.1402 26.6193 78.7813 27.272 79.3747C27.983 80.0253 28.7489 80.6863 29.1754 81.5693C29.2319 81.689 29.4172 81.6031 29.3856 81.4811C28.9408 79.84 27.3014 79.0453 26.4301 77.6749ZM41.022 86.6532C40.4802 86.1069 39.7986 85.8269 39.0693 85.6261C38.2313 85.3959 37.385 85.2063 36.5315 85.0366C35.6619 84.8652 34.8083 84.6888 33.9188 84.7543C33.8583 84.7593 33.8511 84.8358 33.9055 84.8585C34.6958 85.1791 35.5177 85.3166 36.3484 85.4996C37.1521 85.6777 37.954 85.8718 38.7509 86.0753C39.4597 86.2578 40.1391 86.4768 40.672 87.0031C41.2117 87.5355 41.6293 88.1722 42.1916 88.6913C42.2731 88.7662 42.3902 88.6713 42.3408 88.5743C41.9997 87.8855 41.566 87.2017 41.022 86.6532ZM43.5465 85.6555C43.0878 85.4952 42.607 85.3959 42.124 85.3643C41.6681 85.3371 41.1396 85.3211 40.7691 85.6122C40.7242 85.6483 40.758 85.7115 40.7985 85.7276C41.1889 85.879 41.6337 85.8224 42.0496 85.8718C42.4966 85.9239 42.937 86.0276 43.3613 86.179C43.7744 86.3282 44.1604 86.5334 44.5309 86.768C44.903 87.0031 45.2397 87.3032 45.6373 87.4951C45.7138 87.5311 45.8336 87.4679 45.7976 87.3708C45.472 86.4791 44.3839 85.9466 43.5465 85.6555ZM48.4934 84.9961C48.4663 84.9778 48.4391 84.96 48.4119 84.9417C48.1274 84.757 47.8046 84.6167 47.4747 84.5286C47.1474 84.4409 46.7975 84.3888 46.4564 84.3977C46.1858 84.4071 45.8064 84.4703 45.7321 84.7837C45.6911 84.9622 45.7954 85.1203 45.8902 85.2601C45.9983 85.4275 46.1159 85.5878 46.2351 85.7453C46.452 86.0276 46.6711 86.3371 46.9489 86.5628C47.2423 86.7996 47.5789 86.9039 47.9422 86.7774C48.2539 86.6687 48.5855 86.4974 48.8273 86.2739C49.0913 86.0276 49.2338 85.671 49.0647 85.3327C48.9676 85.138 48.7097 84.9306 48.4934 84.9961ZM72.3874 82.2331C72.1279 82.0096 71.8301 81.8493 71.5023 81.7678C71.0442 81.4561 70.5429 81.201 70.0371 80.9775C69.2468 80.6281 68.4182 80.348 67.5719 80.1672C65.8716 79.804 64.0902 79.8018 62.3854 80.1445C60.7643 80.4701 59.2065 81.145 57.8339 82.0684C56.4973 82.9668 55.1491 84.1476 54.3499 85.5651C53.939 86.2922 53.7155 87.1202 53.8824 87.9509C54.0316 88.6913 54.4808 89.3396 55.0249 89.8476C55.3071 90.1116 55.6188 90.3307 55.946 90.5154C56.1224 90.6152 56.3032 90.7028 56.4879 90.7843C57.5627 91.2541 58.7822 91.4432 59.913 91.6717C61.828 92.0577 63.8035 92.3372 65.7584 92.3011C67.5353 92.2673 69.4276 91.985 70.9921 91.096C71.6654 90.7122 72.2771 90.1948 72.688 89.5337C73.16 88.7751 73.3131 87.8855 73.3813 87.0098C73.3946 86.8268 73.4107 86.6371 73.424 86.443C73.4423 86.2128 73.4556 85.9783 73.4645 85.7409C73.5122 84.452 73.3813 83.0861 72.3874 82.2331ZM72.9565 86.1746C72.9071 86.9915 72.83 87.8317 72.5255 88.5993C72.2432 89.3125 71.7258 89.9014 71.0941 90.3285C69.7504 91.2313 68.0322 91.5541 66.4428 91.6489C64.6481 91.7571 62.844 91.5541 61.0738 91.2652C59.5747 91.0212 57.9331 90.8747 56.5289 90.2359C56.5561 89.9691 56.601 89.7073 56.6687 89.4456C56.8428 88.7706 57.1406 88.1384 57.5244 87.5583C58.3191 86.3598 59.5093 85.4386 60.8165 84.8608C62.3288 84.1925 64.0042 83.9668 65.6458 83.9645C67.2713 83.9601 68.9806 84.066 70.5451 84.5197C71.3875 84.7637 72.1933 85.1541 72.8394 85.7548C72.8844 85.7975 72.9293 85.8402 72.9725 85.8856C72.9681 85.9849 72.9609 86.082 72.9565 86.1746ZM23.4742 35.6386C24.4342 34.5322 25.3143 33.352 26.0619 32.0897C26.8361 30.7826 27.4706 29.3967 28.0418 27.9902C28.2226 27.5454 28.4034 27.0374 28.4078 26.5455V26.4956C28.4056 26.3309 28.3829 26.1706 28.3329 26.0125C28.3196 25.9698 28.3041 25.9293 28.2858 25.8861C28.2675 25.8389 28.2431 25.7913 28.2181 25.7441C27.9225 25.2089 27.2515 24.8679 26.6941 25.2317C26.5832 25.3038 26.6536 25.4779 26.7867 25.4485C27.3147 25.3243 27.7528 25.8007 27.8615 26.2859C27.8682 26.3109 27.8726 26.3375 27.8749 26.3625C27.7822 26.4346 27.6896 26.505 27.597 26.5749C27.0374 26.9969 26.4706 27.4101 25.9288 27.8571C25.4091 28.2836 24.915 28.7422 24.5018 29.2769C24.0726 29.8303 23.752 30.4531 23.4498 31.0832C23.1425 31.7243 22.8419 32.3698 22.4426 32.961C22.0544 33.5345 21.5913 34.0536 21.1377 34.5776C20.2276 35.6297 19.4329 36.7289 18.8866 38.0178C18.6492 38.5779 18.4418 39.1807 18.2971 39.7969C17.7619 40.2616 17.184 40.7064 16.7215 41.2438C16.5429 41.4468 16.7708 41.7945 17.0237 41.6365C17.3942 41.4063 17.7397 41.1263 18.0758 40.8351C18.0919 40.8218 18.1074 40.8079 18.1235 40.7924C18.3403 40.6094 18.5522 40.4175 18.7646 40.235C18.7712 40.23 18.7757 40.2234 18.7829 40.2189C18.8705 40.1424 18.9609 40.0653 19.0491 39.9843C19.4983 39.5961 19.9431 39.1941 20.3812 38.7898C21.4627 37.7921 22.5103 36.7539 23.4742 35.6386ZM18.2793 64.3991C18.0941 63.7647 17.8817 63.1346 17.6354 62.5207C17.3986 61.929 17.164 61.3062 16.8141 60.771C16.6194 60.4798 16.3715 60.207 16.0687 60.035C15.9534 59.9674 15.8319 59.9152 15.7005 59.8864C15.6511 59.8703 15.6012 59.8614 15.5496 59.8548V59.852C15.5114 59.8476 15.4725 59.8454 15.432 59.8431C15.2851 59.8365 15.132 59.8592 14.9873 59.9086C14.6845 60.0101 14.4321 60.2336 14.4049 60.5724C14.3977 60.649 14.4998 60.6761 14.5491 60.6312C14.6872 60.5026 14.8542 60.4099 15.03 60.36C15.0777 60.3445 15.1248 60.3356 15.1747 60.3284C15.1952 60.3262 15.2152 60.3218 15.2357 60.3218C15.2923 60.3151 15.3483 60.3151 15.4049 60.3218C15.4232 60.3218 15.4387 60.324 15.457 60.3262C15.4908 60.3284 15.5247 60.3356 15.5585 60.3445C15.4548 60.8004 15.4298 61.2901 15.4232 61.7487C15.4027 63.1979 15.4864 64.6564 15.6805 66.0945C15.8746 67.5165 16.1591 68.9251 16.5362 70.3111C16.8906 71.6138 17.2905 72.9481 17.8817 74.1649C17.9904 74.3862 18.1096 74.6097 18.2477 74.8193C18.1434 75.2957 18.0286 75.7788 18.022 76.2552C18.022 76.4154 18.2499 76.4831 18.3287 76.3389C18.489 76.0428 18.591 75.7067 18.6653 75.3634C18.7174 75.1266 18.7557 74.8848 18.7962 74.6502C18.8095 74.5598 18.8256 74.4672 18.8411 74.379C18.8594 74.2819 18.8755 74.1849 18.8888 74.0878C18.9476 73.729 18.9947 73.3702 19.0358 73.0114V73.0091C19.0557 72.8195 19.074 72.6276 19.0896 72.4379C19.2027 71.083 19.1911 69.7221 19.0491 68.37C18.9093 67.0268 18.6542 65.6969 18.2793 64.3991ZM20.3113 62.7104C19.8643 61.0666 19.1079 59.4932 17.8368 58.3352C17.7802 58.2831 17.672 58.3557 17.7236 58.4234C18.7058 59.7439 19.4689 61.2341 19.8887 62.8274C20.1034 63.6338 20.2415 64.4596 20.3136 65.2903C20.3496 65.7107 20.3923 66.1283 20.4062 66.5526C20.4173 66.9658 20.4195 67.3967 20.4672 67.8076C20.4783 67.9025 20.6202 67.9407 20.6474 67.8326C20.7445 67.4283 20.7739 66.9658 20.7783 66.5526C20.7833 66.1328 20.7877 65.7079 20.7517 65.2903C20.6813 64.4191 20.5393 63.5545 20.3113 62.7104ZM18.225 56.8722C18.1412 56.8112 18.0148 56.9354 18.078 57.0214C18.6426 57.7845 19.2299 58.516 19.6991 59.3468C20.1782 60.1931 20.5548 61.0693 20.8443 61.9966C20.8665 62.0671 20.9885 62.0598 20.9796 61.9789C20.862 61.0034 20.562 60.0284 20.0989 59.1616C19.6386 58.2992 19.0219 57.4529 18.225 56.8722ZM24.4092 38.2662C24.3843 38.3067 24.4408 38.3522 24.4747 38.3184C25.784 37.0223 26.9265 35.5548 27.927 34.0064C28.8975 32.5007 29.7239 30.8868 30.2502 29.1709C30.5502 28.191 30.706 27.2116 30.792 26.1956C30.8075 26.0014 30.5119 26.0059 30.4914 26.1956C30.2995 27.9381 29.6584 29.6701 28.8864 31.2318C28.1072 32.8102 27.1206 34.282 26.1024 35.7129C25.5084 36.5481 24.9305 37.3861 24.4092 38.2662ZM29.0916 34.1123C29.0467 34.1872 29.146 34.2571 29.207 34.2027C29.7804 33.6903 30.2274 33.0287 30.6317 32.3831C31.0382 31.7398 31.3566 31.031 31.6183 30.32C31.8868 29.5908 32.0836 28.8365 32.2145 28.0717C32.2755 27.7124 32.316 27.3491 32.3315 26.9836C32.3498 26.5882 32.316 26.2294 32.2528 25.8412C32.2506 25.8206 32.219 25.8229 32.2145 25.8412C31.9206 27.2947 31.7176 28.7533 31.1985 30.1553C30.9412 30.8525 30.6206 31.5163 30.2773 32.1757C29.9252 32.8506 29.4826 33.4624 29.0916 34.1123ZM21.359 42.2826C21.2575 42.1267 21.1443 41.9798 21.0223 41.84C20.8781 41.6775 20.7129 41.5622 20.5526 41.4224C20.4284 41.3181 20.2703 41.4762 20.3746 41.6004C20.4916 41.7385 20.582 41.9121 20.6813 42.0635C20.7783 42.2099 20.8687 42.3658 20.9547 42.5194C21.1283 42.8288 21.2774 43.1583 21.3928 43.4944C21.5009 43.8149 21.5913 44.1604 21.6457 44.4948C21.6995 44.847 21.7089 45.1875 21.7361 45.5397C21.7427 45.6168 21.842 45.6301 21.8692 45.558C21.9868 45.2352 22.0295 44.8492 22.0228 44.5059C22.0156 44.1039 21.9618 43.7251 21.842 43.3363C21.7289 42.9642 21.5686 42.612 21.359 42.2826ZM23.244 42.3114C23.2895 42.3635 23.3344 42.4179 23.3793 42.4695C23.4065 42.4966 23.4315 42.5216 23.4631 42.5466C23.4792 42.5599 23.4903 42.5665 23.4947 42.5693C23.4969 42.576 23.5036 42.5848 23.5152 42.5981C23.6078 42.7135 23.6888 42.8377 23.7836 42.9531C23.8263 43.0047 23.9123 42.9481 23.8946 42.8871C23.8513 42.7296 23.7725 42.5959 23.7115 42.4473C23.6572 42.3186 23.6006 42.1966 23.5196 42.0746C23.3344 41.799 23.1264 41.5599 22.8763 41.3387C22.6367 41.124 22.3655 40.9394 22.0766 40.8013C21.9258 40.7292 21.7899 40.6726 21.6252 40.6482C21.578 40.641 21.3634 40.5711 21.359 40.6682C21.3545 40.7181 21.3839 40.7314 21.42 40.7586C21.481 40.8035 21.542 40.8534 21.598 40.9028C21.6995 40.9954 21.8148 41.063 21.928 41.1468C22.1648 41.3254 22.4021 41.4989 22.6256 41.6953C22.8419 41.8872 23.0521 42.0973 23.244 42.3114ZM50.2204 14.4859C50.3741 14.5469 50.5299 14.6079 50.6807 14.6667C50.8028 14.7138 50.9248 14.7593 51.0468 14.8042C51.3085 14.9035 51.5753 14.9961 51.8415 15.0865H51.8437C52.1011 15.1747 52.3606 15.2579 52.6229 15.3372C52.8259 15.3982 53.0289 15.4564 53.2324 15.513H53.2346C54.3499 15.8225 55.4857 16.0482 56.6326 16.2063C59.308 16.5739 62.0332 16.5562 64.7019 16.1342C64.7269 16.1292 64.7518 16.1247 64.7768 16.1203H64.779C65.2554 16.0438 65.7318 15.9534 66.2032 15.8497C66.2032 15.8497 66.2032 15.8497 66.206 15.8497C66.4406 15.7997 66.6729 15.7454 66.9059 15.6872C66.9552 15.6755 67.0051 15.6622 67.0545 15.6511C67.4022 15.5629 67.75 15.4703 68.0866 15.3505C68.4277 15.2329 68.7615 15.0888 69.0732 14.8991C69.2268 14.8065 69.1769 14.5153 68.9762 14.538C68.3034 14.6124 67.6645 14.7998 67.0118 14.9667C67.0096 14.9667 67.0051 14.969 67.0029 14.969C66.4428 14.7865 65.8804 14.6212 65.3114 14.4748C64.0453 14.1448 62.7581 13.9014 61.462 13.7344C58.8654 13.3978 56.2239 13.425 53.6317 13.7882C52.9002 13.8903 52.1737 14.0212 51.4511 14.1814C51.3585 14.2014 51.2658 14.2219 51.1688 14.2397C51.1483 14.233 51.1283 14.2264 51.1078 14.2197C50.4101 13.9713 49.7213 13.6352 48.9987 13.4721C48.8068 13.4294 48.728 13.664 48.8728 13.7727C49.2743 14.0794 49.7463 14.294 50.2204 14.4859ZM52.7582 17.8001C52.334 17.6981 51.9136 17.59 51.4916 17.4752C51.0717 17.362 50.6519 17.24 50.236 17.1069C49.8367 16.9805 49.444 16.8562 49.0236 16.8224C48.8905 16.8135 48.87 16.9893 48.9604 17.0526C49.3104 17.2966 49.7102 17.4319 50.1123 17.5606C50.5277 17.6892 50.9475 17.8135 51.3673 17.9266C51.7894 18.0392 52.2142 18.1384 52.6407 18.2288C53.0383 18.3148 53.4809 18.434 53.8896 18.3825C54 18.3664 54.0699 18.2178 53.9528 18.1523C53.5912 17.956 53.1553 17.895 52.7582 17.8001ZM48.7302 18.2765C49.1323 18.4501 49.5388 18.5993 49.9587 18.7186C50.3896 18.8406 50.8233 18.9354 51.2681 18.992C51.4982 19.0214 51.7173 19.0441 51.9452 19.0441C52.1643 19.0463 52.3856 19.0846 52.6002 19.0347C52.7222 19.0053 52.7017 18.845 52.6002 18.8067C52.3944 18.728 52.1643 18.7369 51.9497 18.6847C51.7356 18.6331 51.5165 18.5971 51.2997 18.5494C50.8932 18.4612 50.4844 18.3736 50.0829 18.2627C49.683 18.1523 49.2832 18.0303 48.8927 17.895C48.4729 17.748 48.0487 17.6487 47.6216 17.5312C47.6127 17.529 47.6039 17.5428 47.6105 17.5495C47.9649 17.8362 48.306 18.0913 48.7302 18.2765ZM48.9831 54.4636C48.4796 55.6715 48.1457 56.9493 48.1274 58.2587C48.1252 58.3463 48.2561 58.3646 48.2788 58.2809C48.6016 57.0663 48.9155 55.8451 49.3669 54.6694C49.5904 54.0821 49.8572 53.5158 50.1367 52.9535C50.4234 52.3756 50.7961 51.836 51.0556 51.247C51.0806 51.1904 51.0152 51.1338 50.9653 51.1793C50.5005 51.6036 50.1616 52.1881 49.8411 52.7233C49.5072 53.2762 49.2294 53.8702 48.9831 54.4636ZM49.4823 57.6692C49.7574 56.931 49.9565 56.1634 50.2387 55.4253C50.5232 54.6805 50.8277 53.9107 51.2387 53.2263C51.2636 53.1814 51.1982 53.1454 51.171 53.1858C50.7307 53.8791 50.2992 54.5518 49.9836 55.3149C49.6742 56.0509 49.403 56.85 49.3536 57.6514C49.3492 57.7302 49.4573 57.7346 49.4823 57.6692ZM62.7448 48.4025C62.6383 48.3886 62.5911 48.54 62.6993 48.5672C63.5506 48.7657 64.3925 49.0503 65.2216 49.3303C66.0479 49.6098 66.8537 49.9736 67.6962 50.1949C67.73 50.2038 67.7638 50.1589 67.7322 50.1339C67.0523 49.6032 66.2193 49.2738 65.4085 48.9981C64.535 48.7003 63.6543 48.5356 62.7448 48.4025ZM73.1079 44.156C73.1439 44.2126 73.2276 44.1765 73.2138 44.1111C73.1123 43.6596 72.952 43.2215 72.855 42.7656C72.7623 42.3275 72.6764 41.8827 72.6087 41.4402C72.4667 40.5168 72.4601 39.5845 72.4235 38.6544C72.4213 38.6029 72.3447 38.589 72.3314 38.6433C72.083 39.5623 72.0941 40.5306 72.2227 41.4673C72.347 42.3774 72.6065 43.3773 73.1079 44.156ZM73.3247 41.3453C73.4395 41.9055 73.6519 42.4112 73.9026 42.9215C73.9386 42.9936 74.0562 42.9436 74.0312 42.8671C73.8665 42.3547 73.7534 41.8151 73.6497 41.2865C73.5976 41.0248 73.5504 40.763 73.5077 40.5012C73.4645 40.235 73.4511 39.955 73.3585 39.6998C73.3402 39.6521 73.2726 39.6477 73.257 39.6998C73.1711 39.9683 73.1938 40.2639 73.2116 40.5417C73.2321 40.8079 73.2703 41.0813 73.3247 41.3453ZM83.8237 28.7328C84.2074 28.979 84.589 29.2319 84.9639 29.4937C85.3771 29.7849 85.8124 30.0538 86.2079 30.365C86.2594 30.4082 86.3343 30.3378 86.2822 30.2907C85.9278 29.959 85.5978 29.6113 85.2162 29.3063C84.8375 29.004 84.4465 28.7151 84.04 28.4461C83.2319 27.9087 82.3629 27.4961 81.4594 27.1439C81.4051 27.1234 81.3735 27.2071 81.4212 27.2337C82.2386 27.7057 83.0312 28.2204 83.8237 28.7328ZM81.5498 28.6202C81.9336 28.8437 82.3313 29.0511 82.7217 29.2613C83.5075 29.6834 84.2662 30.1509 85.0382 30.5973C85.1192 30.645 85.2118 30.5319 85.1397 30.4642C84.4803 29.8414 83.731 29.3312 82.9385 28.8931C82.5681 28.6879 82.1593 28.471 81.7578 28.3379C81.3103 28.191 80.8749 28.0035 80.414 27.8998C80.3375 27.8821 80.2832 27.9902 80.3575 28.0307C80.7485 28.2387 81.1661 28.3989 81.5498 28.6202ZM77.6866 75.431C77.8108 75.3207 77.6416 75.0927 77.5041 75.1964C76.8647 75.6906 76.1986 76.1625 75.5397 76.6301C75.212 76.8624 74.8848 77.097 74.5598 77.3322C74.4017 77.4448 74.2459 77.5668 74.09 77.6866C73.9342 77.8036 73.7695 77.9367 73.627 78.0726C73.5887 78.1108 73.627 78.1807 73.6791 78.1652C74.0473 78.0432 74.4128 77.8446 74.7472 77.6527C75.1016 77.447 75.4493 77.2146 75.7832 76.9778C76.4537 76.5014 77.0748 75.9795 77.6866 75.431ZM77.6439 76.7859C77.391 76.919 77.1292 77.0382 76.8807 77.1808C76.6456 77.3161 76.4177 77.4559 76.1853 77.5939C75.9551 77.7315 75.7272 77.874 75.4987 78.016C75.3745 78.0947 75.2641 78.1851 75.1443 78.2667C75.0267 78.3476 74.9031 78.4203 74.7877 78.5057C74.7201 78.5556 74.7561 78.6821 74.8487 78.6504C74.9752 78.61 75.0972 78.5556 75.2214 78.5013C75.3545 78.4425 75.492 78.402 75.6229 78.3388C75.8825 78.2123 76.1331 78.0748 76.3794 77.9256C76.6256 77.7764 76.8696 77.6211 77.0998 77.4492C77.3233 77.2823 77.5285 77.0904 77.7365 76.9029C77.8019 76.8441 77.7182 76.7449 77.6439 76.7859ZM32.0609 35.343C31.9184 35.7312 31.8418 36.1327 31.7875 36.5414C31.7315 36.9685 31.625 37.4538 31.7581 37.8736C31.8868 38.2773 32.2345 38.5846 32.6748 38.5396C33.0658 38.5008 33.5328 38.3428 33.8606 38.1243C34.19 37.903 34.4113 37.5758 34.5061 37.1892C34.6032 36.7943 34.5826 36.3812 34.5466 35.9819C34.5061 35.562 34.4678 35.1128 34.2349 34.7468C34.007 34.3902 33.5982 34.1057 33.1557 34.1983C32.9821 34.2343 32.8262 34.3453 32.7131 34.4828C32.3609 34.5166 32.1624 35.0673 32.0609 35.343ZM19.1961 55.3981C19.8643 55.529 20.3518 54.8973 20.5143 54.3261C20.6136 53.9783 20.6252 53.6101 20.5598 53.2557C20.521 53.0461 20.4533 52.7887 20.3247 52.588C20.2886 52.4028 20.135 52.238 19.9747 52.1476C19.7085 51.9985 19.3785 51.9985 19.1123 52.1499C18.4618 52.5198 18.3963 53.3239 18.3986 53.9917C18.4013 54.5496 18.5477 55.2694 19.1961 55.3981ZM44.2347 54.7908C43.9818 54.5041 43.5892 54.4841 43.2282 54.5407C42.8599 54.5967 42.4739 54.7276 42.1534 54.9173C41.4218 55.3532 41.408 56.2111 41.6498 56.9376C41.7629 57.2765 41.8894 57.6852 42.1534 57.9403C42.4556 58.2337 42.9004 58.2515 43.2869 58.1433C44.0024 57.9426 44.5941 57.3397 44.7499 56.6082C44.8448 56.1634 44.7949 55.7009 44.603 55.2877C44.5242 55.1136 44.395 54.9151 44.2347 54.7908ZM38.2291 44.3773C38.6783 44.5398 39.1913 44.3207 39.4098 43.9031C39.6067 43.5282 39.6244 43.0523 39.4708 42.6591C39.3671 42.3885 39.1885 42.1245 38.8951 42.0386C38.7709 42.0003 38.559 42.0225 38.4304 42.1151C38.4143 42.1151 38.401 42.1173 38.3849 42.1223C38.1503 42.2055 37.9379 42.3186 37.7754 42.5105C37.5991 42.7135 37.4976 42.9414 37.4682 43.2076C37.4116 43.7251 37.7505 44.2059 38.2291 44.3773ZM46.1608 47.6394C46.391 47.2983 46.3843 46.8064 46.1337 46.4814C45.9917 46.2962 45.7793 46.188 45.5491 46.1564C45.416 46.1381 45.2374 46.1337 45.0955 46.188C45.0705 46.1514 45.0322 46.127 44.9845 46.1292C44.867 46.1359 44.7699 46.1719 44.6867 46.2601C44.6163 46.3322 44.5558 46.4137 44.5037 46.4991C44.4 46.6755 44.3412 46.8718 44.3368 47.0748C44.3274 47.5218 44.6096 47.9056 45.0411 48.0276C45.4609 48.1474 45.9146 48.0004 46.1608 47.6394ZM51.8892 46.3095C52.2075 46.1697 52.4216 45.8602 52.6046 45.5807C52.8392 45.2191 53.0516 44.822 53.142 44.3956C53.1825 44.1987 53.2213 43.8693 53.1309 43.6369C53.1287 43.2709 52.9024 42.8943 52.537 42.79C52.1598 42.6841 51.7628 42.8311 51.4849 43.0906C51.1982 43.3568 51.0401 43.7317 50.927 44.0972C50.7351 44.7067 50.5321 45.6073 51.024 46.1359C51.2475 46.3727 51.5975 46.4381 51.8892 46.3095ZM62.6427 41.4268C62.7015 41.6614 62.8756 41.804 63.0853 41.901C63.5278 42.1084 63.9821 42.2914 64.4718 42.1356C65.3408 41.8578 65.8921 40.9504 66.1111 40.113C66.2326 39.6521 66.2598 39.1647 66.1605 38.6999C66.1178 38.4986 66.0679 38.2823 65.9009 38.1464C65.8649 38.117 65.8266 38.0971 65.7856 38.0832C65.6209 37.878 65.3885 37.7427 65.1129 37.695C64.677 37.6207 64.2549 37.7787 63.9138 38.0494C63.1014 38.6949 62.9344 39.7858 62.7082 40.7358C62.6566 40.9527 62.5867 41.1989 62.6427 41.4268ZM36.0052 60.8614C36.1771 60.7799 36.3374 60.6562 36.4749 60.5247C36.6169 60.3894 36.7389 60.2247 36.7954 60.035C36.8498 59.8498 36.8226 59.6446 36.7322 59.4755C36.6873 59.3939 36.6147 59.3218 36.5315 59.2764C36.4976 59.2586 36.4616 59.2475 36.43 59.2425C36.3668 59.1954 36.2985 59.1616 36.222 59.1433C36.0434 59.1028 35.8449 59.1344 35.6846 59.2203C35.328 59.4122 35.1833 59.8409 35.1788 60.2225C35.1766 60.4255 35.1993 60.6761 35.3641 60.8165C35.5515 60.979 35.7905 60.9629 36.0052 60.8614ZM57.7096 77.3139C57.6192 77.2462 57.4839 77.208 57.3752 77.2484C57.2782 77.1963 57.1789 77.1558 57.0885 77.1264C56.784 77.0272 56.4407 77.0161 56.1429 77.1425C55.5961 77.3727 55.1874 77.9572 55.2439 78.56C55.2983 79.1357 55.7519 79.6121 56.3254 79.7069C56.601 79.7519 56.8855 79.7202 57.1273 79.5783C57.4068 79.4158 57.6081 79.1446 57.7618 78.8645C57.9442 78.5307 58.1206 78.1241 58.003 77.7381C57.9537 77.5712 57.8516 77.4198 57.7096 77.3139ZM68.9196 74.8304C68.7865 74.7267 68.6146 74.6796 68.4321 74.6884C68.1093 74.704 67.8315 74.8648 67.5919 75.0744C67.1698 75.4449 66.7023 76.0699 66.9353 76.6617C67.1632 77.2373 67.8448 77.3682 68.396 77.2845C68.8858 77.2102 69.3871 76.9257 69.6017 76.4626C69.8025 76.0317 69.7165 75.5081 69.4121 75.1488C69.2945 75.0068 69.1093 74.867 68.9196 74.8304ZM64.002 22.7099C64.5189 22.7665 65.0225 22.4754 65.2349 22.0012C65.4539 21.5093 65.4018 20.9064 65.0269 20.5021C64.8328 20.2925 64.5622 20.1433 64.2821 20.0934C64.1423 20.069 63.9976 20.0573 63.8556 20.0712C63.7741 20.0779 63.702 20.0956 63.6293 20.1183C63.6116 20.1183 63.5911 20.1183 63.5733 20.125C63.5323 20.1389 63.4962 20.1588 63.4624 20.1816C63.4535 20.186 63.4469 20.1882 63.4375 20.1904C63.4108 20.2021 63.3947 20.2198 63.3859 20.2404C63.2051 20.3962 63.0947 20.6491 63.0088 20.8632C62.8956 21.1432 62.8485 21.446 62.8978 21.7438C62.9927 22.2968 63.4668 22.6512 64.002 22.7099ZM76.0744 28.496C76.7404 28.4261 77.1248 27.7307 77.1902 27.1256C77.2484 26.5727 77.0588 25.9787 76.6617 25.5838C76.4066 25.3287 76.0294 25.1457 75.664 25.1912C75.4898 25.2112 75.3251 25.2927 75.2009 25.4169C75.1781 25.4391 75.156 25.4663 75.1354 25.4934C75.0223 25.5295 74.9275 25.5861 74.8465 25.6875C74.7311 25.8301 74.648 25.9854 74.5914 26.1573C74.4827 26.4889 74.5032 26.8594 74.6069 27.1888C74.7988 27.805 75.3384 28.5725 76.0744 28.496ZM80.1001 48.2938C79.9421 48.296 79.7934 48.3642 79.6986 48.479C79.662 48.4835 79.626 48.4995 79.5944 48.5312C79.5017 48.6282 79.4252 48.7186 79.3709 48.8428C79.3121 48.9759 79.2694 49.1135 79.2422 49.2554C79.1928 49.5128 79.1884 49.7884 79.2694 50.0391C79.4119 50.4772 79.809 50.7906 80.2626 50.8405C80.7368 50.8948 81.15 50.556 81.2404 50.0957C81.3441 49.5605 81.0823 49.0885 80.7595 48.6848C80.5993 48.4907 80.3669 48.2894 80.1001 48.2938ZM84.9251 52.6507C84.8552 52.5697 84.7265 52.5381 84.6478 52.6373C84.1398 53.2718 84.0333 54.2152 84.1193 55.0032C84.1664 55.4297 84.2707 55.8362 84.4443 56.2289C84.5979 56.581 84.8031 56.9604 85.1103 57.2022C85.4242 57.4501 85.8285 57.4773 86.1807 57.2876C86.5534 57.089 86.7674 56.7119 86.86 56.3126C86.9615 55.8767 86.9959 55.3981 86.9981 54.9511C87.0004 54.4974 86.9349 54.0438 86.7452 53.6262C86.4269 52.9263 85.661 52.4005 84.9251 52.6507ZM84.3178 63.5545C84.2729 63.5118 84.1936 63.5096 84.1464 63.5478C84.0943 63.514 84.04 63.4824 83.9839 63.4596C83.6384 63.3199 83.2591 63.4236 82.9679 63.636C82.2769 64.1412 81.8931 65.1034 81.7234 65.9137C81.6358 66.3335 81.5476 66.8393 81.6425 67.2658C81.7351 67.6878 82.1394 67.8437 82.5342 67.8076C83.3201 67.7333 83.995 67.1599 84.3428 66.4733C84.5685 66.0285 84.6678 65.5277 84.67 65.0308C84.67 64.7779 84.6428 64.525 84.5979 64.2771C84.5552 64.0264 84.5053 63.7331 84.3178 63.5545ZM69.0349 31.95C68.9423 31.9927 68.8586 32.0626 68.7909 32.1397C68.6373 32.3177 68.5563 32.5345 68.5402 32.7669C68.5064 33.266 68.888 33.6609 69.3466 33.7918C69.8047 33.9227 70.4031 33.8212 70.7214 33.4418C70.9244 33.2006 70.9854 32.8933 70.8751 32.5933C70.7891 32.3632 70.6421 32.1757 70.4458 32.0287C70.2561 31.8868 70.0055 31.8075 69.7687 31.8008C69.6062 31.7964 69.4548 31.8324 69.315 31.8956C69.2202 31.8912 69.1298 31.9023 69.0349 31.95ZM89.0052 36.9729C89.4411 37.3157 90.0911 37.3384 90.4704 36.8936C90.8409 36.4583 90.8159 35.8438 90.5204 35.3746C90.3667 35.1328 90.1205 34.8982 89.8271 34.8555C89.694 34.835 89.5626 34.8555 89.4456 34.9254L89.4433 34.9276C89.4206 34.8893 89.3868 34.8577 89.3435 34.8505C89.3119 34.8461 89.2831 34.8438 89.2559 34.8483C89.1633 34.835 89.0884 34.8438 89.0052 34.9115C88.9692 34.9409 88.9353 34.9703 88.9037 35.0041C88.8311 35.0812 88.7656 35.1666 88.7163 35.2592C88.6148 35.4511 88.5604 35.6613 88.5466 35.8754C88.5199 36.2841 88.678 36.7156 89.0052 36.9729Z" fill="#421A92"/>
</svg>
