<svg width="172" height="172" viewBox="0 0 172 172" fill="none" xmlns="http://www.w3.org/2000/svg">
<path d="M86.1684 17.9166C80.5963 17.9346 76.7335 18.4255 72.0644 19.2317C58.2758 21.6326 55.7638 26.6743 55.7638 35.9659V50.1666H88.0138V57.3333H54.5383H38.9508C29.5052 57.3333 21.2384 61.7838 18.619 72.4514C15.6592 84.6956 15.5266 92.364 18.619 105.149C20.9661 114.685 26.1368 121.833 35.5861 121.833H48.6007V103.544C48.6007 92.9158 58.2256 82.4166 69.2551 82.4166H95.1841C104.225 82.4166 113.101 75.7445 113.101 66.7324V35.9659C113.101 27.2261 106.798 20.6901 97.9863 19.2246C98.2048 19.2031 91.6939 17.8951 86.1684 17.9166ZM68.3091 32.25C71.251 32.25 73.6841 34.6759 73.6841 37.6321C73.6841 40.6171 71.251 43 68.3091 43C65.3098 43 62.9341 40.6206 62.9341 37.6321C62.9341 34.6866 65.3098 32.25 68.3091 32.25Z" fill="url(#paint0_linear_4_173)"/>
<path d="M82.6962 154.083C88.2682 154.065 92.1311 153.574 96.8002 152.768C110.589 150.367 113.101 145.326 113.101 136.034V121.833H80.8508V114.667H114.33H129.917C139.363 114.667 147.63 110.216 150.249 99.5485C153.209 87.3043 153.342 79.636 150.249 66.8506C147.898 57.3154 142.728 50.1666 133.278 50.1666H120.264V68.456C120.264 79.0841 110.639 89.5833 99.6095 89.5833H73.6805C64.6398 89.5833 55.7638 96.2555 55.7638 105.268V136.034C55.7638 144.774 62.0669 151.31 70.8783 152.775C70.6598 152.797 77.1707 154.105 82.6962 154.083ZM100.559 139.75C97.6172 139.75 95.1841 137.324 95.1841 134.368C95.1841 131.383 97.6172 129 100.559 129C103.558 129 105.934 131.379 105.934 134.368C105.934 137.313 103.555 139.75 100.559 139.75Z" fill="url(#paint1_linear_4_173)"/>
<defs>
<linearGradient id="paint0_linear_4_173" x1="37.4745" y1="46.483" x2="94.2918" y2="94.1592" gradientUnits="userSpaceOnUse">
<stop stop-color="#151531"/>
<stop offset="1" stop-color="#2E2E4D"/>
</linearGradient>
<linearGradient id="paint1_linear_4_173" x1="126.614" y1="135.848" x2="84.2693" y2="75.3718" gradientUnits="userSpaceOnUse">
<stop stop-color="#2E2E4D"/>
<stop offset="1" stop-color="#151531"/>
</linearGradient>
</defs>
</svg>
