<svg width="159" height="159" viewBox="0 0 159 159" fill="none" xmlns="http://www.w3.org/2000/svg">
<path d="M79.8911 112.36C37.3883 112.36 4.11095 97.8633 4.11095 79.4125C4.11095 60.9617 37.3883 46.4646 79.8911 46.4646C122.394 46.4646 155.671 60.9617 155.671 79.4125C155.671 97.8633 122.394 112.36 79.8911 112.36ZM79.8911 53.0542C38.3768 53.0542 10.7005 66.5628 10.7005 79.4125C10.7005 92.2622 38.3768 105.771 79.8911 105.771C121.405 105.771 149.082 92.2622 149.082 79.4125C149.082 66.5628 121.405 53.0542 79.8911 53.0542Z" fill="#151531"/>
<path d="M50.5675 147.285C47.2727 147.285 44.6369 146.626 42.001 144.979C25.8566 135.753 30.1398 99.8402 51.2264 62.9386C61.1108 45.8057 73.3015 31.3086 85.1628 22.0832C98.0125 12.1988 109.544 9.23349 117.452 13.8462C125.689 18.4589 128.654 29.9907 126.677 46.1351C124.7 61.2912 118.111 79.083 108.226 96.2159C98.3419 113.349 86.1512 127.846 74.29 137.071C65.7235 143.661 57.4865 147.285 50.5675 147.285ZM109.215 18.1294C103.943 18.1294 97.024 21.0947 89.446 27.0254C78.2437 35.9213 66.712 49.7594 57.1571 66.2333C36.3999 102.147 34.423 133.118 45.2958 139.378C50.897 142.672 60.1224 139.707 70.3362 131.8C81.5385 122.904 93.0703 109.066 102.625 92.5917C112.18 76.1177 118.44 59.3143 120.417 45.1467C122.064 31.9675 120.088 22.7421 114.486 19.4473C112.839 18.7884 111.192 18.1294 109.215 18.1294Z" fill="#151531"/>
<path d="M109.544 147.285C93.0703 147.285 69.3478 127.187 51.5559 95.8864C30.1398 58.9847 25.8566 23.0715 42.001 13.8461C58.1455 4.6207 87.1397 26.0368 108.556 62.9385C118.44 80.0714 125.03 97.8633 127.007 113.019C129.313 129.164 126.018 140.366 117.781 145.308C115.145 146.626 112.51 147.285 109.544 147.285ZM45.2958 19.4473C34.423 25.7074 36.3999 56.6784 57.1571 92.5916C77.9143 128.505 103.614 145.638 114.486 139.378C120.088 136.083 122.064 126.857 120.417 113.678C118.44 99.5107 112.18 82.7072 102.625 66.2333C81.868 30.3201 56.1686 13.1872 45.2958 19.4473Z" fill="#151531"/>
<path d="M79.8911 92.5916C87.1698 92.5916 93.0703 86.6911 93.0703 79.4124C93.0703 72.1338 87.1698 66.2333 79.8911 66.2333C72.6125 66.2333 66.712 72.1338 66.712 79.4124C66.712 86.6911 72.6125 92.5916 79.8911 92.5916Z" fill="#151531"/>
</svg>
