<svg width="522" height="510" viewBox="0 0 522 510" fill="none" xmlns="http://www.w3.org/2000/svg">
<path d="M492.395 152.946C479.899 125.476 418.244 124.736 331.346 150.925C313.644 138.33 292.344 130.301 269.032 128.688C267.346 128.572 265.662 128.511 263.982 128.465C263.467 128.315 262.942 128.301 262.425 128.422C232.348 127.944 203.535 138.433 180.668 158.345C156.896 179.042 142.346 207.513 139.405 238.78C64.1856 286.62 25.1465 333.083 37.4802 360.197C40.4836 366.796 46.3173 371.813 54.5724 375.29C82.7476 387.176 139.116 381.202 207.094 359.645C209.133 360.64 211.178 361.619 213.261 362.497C225.577 367.693 238.619 370.79 252.146 371.724C310.238 375.739 362.974 338.092 378.101 282.054C404.511 266.065 427.91 249.468 446.916 233.073C484.861 200.344 501.012 171.884 492.395 152.946ZM344.062 170.391C344.298 170.762 344.588 171.073 344.942 171.317C347.661 174.225 350.239 177.262 352.646 180.443C330.509 209.739 301.166 231.646 265.21 245.687C295.537 215.561 315.686 185.895 326.598 155.426C327.191 155.84 327.773 156.267 328.356 156.69C328.63 156.973 328.942 157.204 329.299 157.368C334.594 161.285 339.526 165.649 344.062 170.391ZM375.259 237.65C366.682 243.732 357.383 248.061 347.447 250.47C358.195 240.862 366.291 230.341 371.733 219.056C373.399 225.072 374.585 231.287 375.259 237.65ZM382.328 247.731C381.797 218.265 370.807 191.266 352.772 170.416C407.27 155.832 446.319 155.468 452.82 169.756C457.849 180.81 443.04 201.642 413.204 225.471C404.002 232.817 393.624 240.277 382.328 247.731ZM268.586 135.095C278.354 135.772 287.748 137.634 296.641 140.532C282.026 160.952 258.612 176.638 223.88 189.156C243.187 170.871 256.68 153.02 265.02 134.935C266.209 134.984 267.395 135.013 268.586 135.095ZM184.879 163.186C205.422 145.299 231.031 135.446 257.915 134.86C248.223 154.599 231.97 174.21 208.203 194.64C207.051 195.63 206.752 197.295 207.488 198.628C207.847 199.278 208.403 199.76 209.047 200.032C209.724 200.318 210.498 200.372 211.244 200.143C256.395 186.165 285.576 167.884 302.874 142.782C309.239 145.267 315.326 148.285 321.062 151.798C309.422 185.269 286.183 217.86 250.031 251.345C248.927 252.366 248.68 254.018 249.437 255.318C249.799 255.936 250.34 256.396 250.962 256.659C251.647 256.948 252.435 256.997 253.188 256.757C296.164 242.993 330.895 219.147 356.532 185.901C361.484 193.301 365.594 201.299 368.739 209.765C362.772 225.762 351.165 240.318 334.16 253.03C333.004 253.892 332.569 255.415 333.086 256.756C333.404 257.591 334.047 258.231 334.834 258.563C335.312 258.764 335.839 258.849 336.379 258.8C350.602 257.464 363.834 252.858 375.797 245.107C375.891 247.361 375.927 249.633 375.889 251.911C349.479 268.808 318.428 285.559 285.041 300.769C276.656 304.589 268.301 308.218 260.001 311.678C262.965 305.902 264.873 298.986 265.767 290.788C265.907 289.52 265.284 288.29 264.178 287.656C263.089 286.993 261.693 287.104 260.671 287.86C234.44 307.307 205.189 320.129 173.723 326.075C164.167 315.096 156.79 302.469 151.959 288.891C183.688 281.712 208.932 265.632 226.991 241.01C227.875 239.81 227.813 238.157 226.845 237.021C225.877 235.889 224.254 235.573 222.932 236.257C191.754 252.375 167.195 260.977 145.996 263.21C145.208 256.306 145.034 249.293 145.523 242.249C147.659 211.504 161.638 183.423 184.879 163.186ZM185.823 338.063C183.396 335.989 181.071 333.82 178.839 331.573C207.284 325.658 233.936 314.279 258.193 297.528C256.479 305.337 253.485 311.452 249.152 316.112C227.203 324.891 205.838 332.292 185.823 338.063ZM146.89 269.531C165.606 267.527 186.66 260.883 212.152 248.78C195.959 265.794 175.073 277.14 149.948 282.729C148.677 278.401 147.652 273.992 146.89 269.531ZM140.163 267.762C141.114 274.266 142.578 280.657 144.551 286.892C144.56 286.992 144.53 287.088 144.551 287.191C144.63 287.579 144.793 287.926 144.996 288.248C150.207 304.076 158.625 318.771 169.825 331.344C170.028 331.661 170.266 331.95 170.561 332.171C173.064 334.932 175.688 337.593 178.457 340.126C166.418 343.409 154.905 346.085 144.139 348.055C106.584 354.931 81.1659 352.43 76.1398 341.369C69.7696 327.366 94.8385 298.698 140.163 267.762ZM252.588 365.318C239.913 364.447 227.697 361.537 216.147 356.704C241.604 348.245 268.531 337.696 296.122 325.125C322.249 313.221 347.111 300.327 369.915 286.943C353.383 336.37 305.319 368.962 252.588 365.318ZM373.732 277.191C373.728 277.195 373.727 277.197 373.724 277.199C349.225 291.971 322.133 306.218 293.465 319.28C173.343 374.005 58.7887 391.533 43.3246 357.54C32.9439 334.722 71.2305 290.521 138.929 246.715C138.795 251.36 138.935 255.976 139.325 260.56C87.2392 295.562 62.0677 325.948 70.2935 344.031C72.4474 348.769 76.5114 352.107 81.8657 354.366C97.262 360.858 123.327 358.391 145.295 354.368C176.407 348.674 213.466 337.331 252.233 321.793C252.262 321.781 252.291 321.77 252.32 321.758C263.999 317.075 275.826 312.028 287.701 306.618C339.025 283.235 385.017 256.198 417.206 230.488C440.729 211.703 467.015 185.455 458.661 167.095C446.91 141.248 378.808 156.569 347.869 165.062C344.653 161.769 341.254 158.655 337.68 155.738C416.544 132.634 476.016 132.453 486.553 155.604C493.779 171.493 477.806 197.955 442.727 228.212C423.728 244.599 400.255 261.202 373.732 277.191Z" fill="black" fill-opacity="0.47"/>
<path d="M76.6453 262.511C80.4386 259.207 82.7193 254.624 83.0671 249.606C83.4162 244.591 81.7908 239.736 78.4902 235.941C75.1886 232.149 70.6093 229.873 65.5917 229.522C55.2341 228.808 46.2252 236.655 45.5071 247.014C44.9332 255.249 49.7709 262.633 56.9803 265.672C58.839 266.456 60.8593 266.953 62.9806 267.102C67.9988 267.444 72.8511 265.817 76.6453 262.511ZM72.4274 257.667C69.9271 259.847 66.7295 260.922 63.4253 260.691C56.5984 260.219 51.4327 254.283 51.9106 247.455C52.383 240.629 58.3219 235.456 65.1456 235.93C66.5351 236.026 67.8734 236.345 69.1217 236.872C70.8432 237.598 72.3851 238.712 73.6451 240.162C75.8182 242.664 76.8908 245.861 76.6607 249.171C76.4321 252.47 74.9304 255.494 72.4274 257.667Z" fill="black" fill-opacity="0.47"/>
<path d="M468.662 279.013C468.66 279.012 468.66 279.012 468.662 279.013C469.381 268.646 461.538 259.634 451.185 258.926C446.171 258.58 441.319 260.207 437.52 263.511C433.727 266.815 431.446 271.398 431.098 276.416C430.752 281.433 432.379 286.288 435.675 290.081C437.587 292.277 439.932 293.972 442.538 295.071C444.431 295.87 446.466 296.356 448.572 296.504C458.931 297.214 467.94 289.367 468.662 279.013ZM449.02 290.092C445.717 289.86 442.694 288.361 440.52 285.861C438.346 283.36 437.275 280.161 437.505 276.851C437.736 273.545 439.236 270.526 441.741 268.348C444.24 266.171 447.437 265.098 450.743 265.33C452.134 265.423 453.471 265.745 454.72 266.272C456.436 266.996 457.981 268.111 459.239 269.557C461.413 272.06 462.489 275.261 462.257 278.568C461.783 285.394 455.844 290.566 449.02 290.092Z" fill="black" fill-opacity="0.47"/>
<path d="M333.271 133.543C334.602 135.074 336.237 136.254 338.052 137.02C339.371 137.576 340.787 137.918 342.258 138.018C349.47 138.516 355.748 133.045 356.252 125.83C356.752 118.616 351.293 112.336 344.079 111.837C336.867 111.337 330.586 116.81 330.083 124.022C329.839 127.52 330.969 130.9 333.271 133.543ZM343.63 118.243C344.383 118.297 345.103 118.474 345.761 118.752C348.329 119.835 350.048 122.462 349.845 125.389C349.588 129.075 346.385 131.866 342.699 131.609C340.91 131.49 339.283 130.674 338.112 129.327C336.938 127.978 336.359 126.249 336.484 124.466C336.744 120.778 339.945 117.989 343.63 118.243Z" fill="black" fill-opacity="0.47"/>
</svg>
