<svg width="208" height="133" viewBox="0 0 208 133" fill="none" xmlns="http://www.w3.org/2000/svg">
<path d="M189 129.2C189 120.836 182.164 114 173.8 114C182.164 114 189 107.164 189 98.8C189 107.164 195.836 114 204.2 114C195.836 114 189 120.836 189 129.2Z" fill="white"/>
<path d="M116 93.5999C116 72.9105 99.0894 55.9999 78.4 55.9999C99.0894 55.9999 116 39.0893 116 18.3999C116 39.0893 132.911 55.9999 153.6 55.9999C132.911 55.9999 116 72.9105 116 93.5999Z" fill="white"/>
<path d="M83 16.2C83 12.2382 81.201 9.00005 79 9.00005C81.201 9.00005 83 5.76185 83 1.80005C83 5.76185 84.799 9.00005 87 9.00005C84.799 9.00005 83 12.2382 83 16.2Z" fill="white"/>
<path d="M10.5 58.2C10.5 49.8362 6.72211 43 2.10001 43C6.72211 43 10.5 36.1639 10.5 27.8C10.5 36.1639 14.2779 43 18.9 43C14.2779 43 10.5 49.8362 10.5 58.2Z" fill="white"/>
</svg>
