<svg width="237" height="100" viewBox="0 0 237 100" fill="none" xmlns="http://www.w3.org/2000/svg">
<path d="M226.778 68.8606C226.778 61.0689 223.26 54.7003 218.956 54.7003C223.26 54.7003 226.778 48.3317 226.778 40.54C226.778 48.3317 230.297 54.7003 234.601 54.7003C230.297 54.7003 226.778 61.0689 226.778 68.8606Z" fill="white"/>
<path d="M19 87.2C19 78.8362 12.1638 72 3.8 72C12.1638 72 19 65.1639 19 56.8C19 65.1639 25.8362 72 34.2 72C25.8362 72 19 78.8362 19 87.2Z" fill="white"/>
<path d="M114 90.5999C114 69.9105 97.0894 52.9999 76.4 52.9999C97.0894 52.9999 114 36.0893 114 15.3999C114 36.0893 130.911 52.9999 151.6 52.9999C130.911 52.9999 114 69.9105 114 90.5999Z" fill="white"/>
<path d="M55 16.2C55 12.2382 53.201 9.00005 51 9.00005C53.201 9.00005 55 5.76185 55 1.80005C55 5.76185 56.799 9.00005 59 9.00005C56.799 9.00005 55 12.2382 55 16.2Z" fill="white"/>
</svg>
