<svg width="144" height="142" viewBox="0 0 144 142" fill="none" xmlns="http://www.w3.org/2000/svg">
<path d="M59 113.6C59 92.9105 42.0895 75.9999 21.4 75.9999C42.0895 75.9999 59 59.0893 59 38.3999C59 59.0893 75.9106 75.9999 96.6 75.9999C75.9106 75.9999 59 92.9105 59 113.6Z" fill="white"/>
<path d="M101 55.2C101 51.2382 99.201 48 97 48C99.201 48 101 44.7619 101 40.8C101 44.7619 102.799 48 105 48C102.799 48 101 51.2382 101 55.2Z" fill="white"/>
<path d="M125 138.2C125 129.836 118.164 123 109.8 123C118.164 123 125 116.164 125 107.8C125 116.164 131.836 123 140.2 123C131.836 123 125 129.836 125 138.2Z" fill="white"/>
<path d="M10.5 34.2C10.5 25.8362 6.72208 19 2.09998 19C6.72208 19 10.5 12.1639 10.5 3.80005C10.5 12.1639 14.2779 19 18.9 19C14.2779 19 10.5 25.8362 10.5 34.2Z" fill="white"/>
</svg>
