<svg width="85" height="85" viewBox="0 0 85 85" fill="none" xmlns="http://www.w3.org/2000/svg">
<path fill-rule="evenodd" clip-rule="evenodd" d="M8.62042 76.6825L13.391 59.2663C10.4479 54.1699 8.90021 48.3863 8.90198 42.4629C8.91084 23.9311 23.9913 8.85425 42.5248 8.85425C51.5189 8.85779 59.9586 12.3587 66.3071 18.7107C72.6538 25.0645 76.1494 33.5078 76.1458 42.4895C76.1388 61.0212 61.0548 76.0999 42.5248 76.0999H42.5106C36.8847 76.0981 31.3544 74.6867 26.4439 72.0075L8.62042 76.6825Z" fill="#C051FF"/>
<path fill-rule="evenodd" clip-rule="evenodd" d="M8.62042 77.5678C8.38667 77.5678 8.16 77.4757 7.99178 77.3057C7.77042 77.0808 7.68365 76.7532 7.76688 76.4504L12.4401 59.3867C9.54303 54.2406 8.0148 48.3969 8.01834 42.4646C8.02542 23.4423 23.5043 7.96875 42.5248 7.96875C51.7508 7.97229 60.4191 11.5653 66.934 18.0855C73.4489 24.6075 77.0348 33.274 77.0312 42.4894C77.0242 61.5099 61.5435 76.9852 42.5248 76.9852C36.8776 76.9834 31.2906 75.5898 26.3323 72.953L8.84532 77.5377C8.77094 77.559 8.69657 77.5678 8.62042 77.5678Z" fill="#C051FF"/>
<path fill-rule="evenodd" clip-rule="evenodd" d="M42.5248 8.85409C51.5189 8.85763 59.9587 12.3586 66.3071 18.7105C72.6538 25.0643 76.1494 33.5076 76.1459 42.4893C76.1388 61.0211 61.0548 76.0997 42.5248 76.0997H42.5107C36.8847 76.0979 31.3544 74.6866 26.4439 72.0073L8.62044 76.6823L13.3911 59.2662C10.4479 54.1697 8.90023 48.3862 8.902 42.4627C8.91086 23.931 23.9913 8.85409 42.5248 8.85409ZM42.5248 7.08325C23.0173 7.08325 7.14002 22.9535 7.13117 42.4627C7.1294 48.4251 8.63461 54.3008 11.4892 59.5017L6.91158 76.2166C6.74513 76.8275 6.91513 77.4792 7.36138 77.929C7.69783 78.269 8.15294 78.4549 8.62044 78.4549C8.77096 78.4549 8.92148 78.4354 9.07023 78.3965L26.2243 73.8986C31.2322 76.4981 36.8458 77.8705 42.5107 77.8723C62.0323 77.8723 77.9096 62.0003 77.9185 42.4911C77.922 33.0366 74.244 24.147 67.5626 17.4603C60.8777 10.7719 51.9864 7.08679 42.5248 7.08325Z" fill="#421A92"/>
<path fill-rule="evenodd" clip-rule="evenodd" d="M62.2908 22.7234C57.0138 17.4427 49.9995 14.5333 42.5337 14.5315C27.1203 14.5315 14.5846 27.0619 14.5775 42.4646C14.5757 47.7435 16.0526 52.8824 18.8505 57.3325L19.5164 58.3897L16.6919 68.6977L27.2691 65.9246L28.2908 66.5302C32.5798 69.0767 37.4992 70.4225 42.5142 70.4243H42.5248C57.9275 70.4243 70.4632 57.8921 70.4686 42.4876C70.4703 35.0236 67.5679 28.004 62.2908 22.7234Z" fill="#421A92"/>
<path fill-rule="evenodd" clip-rule="evenodd" d="M34.1204 28.413C33.4917 27.014 32.8294 26.9857 32.2291 26.9609C31.7386 26.9397 31.179 26.9414 30.6194 26.9414C30.0599 26.9414 29.1497 27.1522 28.3793 27.9933C27.609 28.8345 25.438 30.8656 25.438 34.9987C25.438 39.1319 28.4484 43.1269 28.8681 43.6864C29.2878 44.246 34.68 52.9993 43.2189 56.3674C50.3147 59.1653 51.7597 58.6093 53.3003 58.4694C54.8409 58.3295 58.271 56.4382 58.9705 54.4761C59.67 52.514 59.67 50.8335 59.461 50.4829C59.2503 50.1323 58.6907 49.9233 57.8513 49.5019C57.0119 49.0804 52.8806 47.0493 52.1103 46.7695C51.34 46.4897 50.7804 46.3498 50.219 47.1909C49.6594 48.0303 48.0498 49.9233 47.5592 50.4829C47.0687 51.0443 46.5782 51.1151 45.7388 50.6936C44.8994 50.2722 42.1936 49.3868 38.9831 46.5251C36.4862 44.2992 34.8004 41.549 34.3099 40.7079C33.8193 39.8685 34.2567 39.4134 34.6782 38.9937C35.0554 38.6165 35.5176 38.0127 35.939 37.5222C36.3587 37.0317 36.4986 36.681 36.7784 36.1214C37.0582 35.5601 36.9183 35.0696 36.7076 34.6499C36.5004 34.2284 34.8677 30.074 34.1204 28.413Z" fill="#C051FF"/>
</svg>
